<svg version="1.1" id="Group_1_1_" xmlns="http://www.w3.org/2000/svg" x="0" y="0" viewBox="0 0 480 480" xml:space="preserve"><style>.st1{fill:#7b1606}.st2{fill:#eeaf00}</style><path transform="rotate(-45.001 240.193 239.81)" d="M73.1 72.7h334.2v334.2H73.1z" id="Rectangle_2_copy"/><path transform="rotate(-45.001 240.193 239.81)" fill="#fff" d="M75.8 75.4h328.7v328.7H75.8z" id="Rectangle_2"/><path class="st1" d="M239.8 82.5L82.2 240.2h315.3z" id="Rectangle_1"/><path class="st2" d="M82.2 240.2l157.6 157.6 157.7-157.6z" id="Rectangle_1_copy"/><path class="st2" d="M189.9 197.7c-1.3-1.6-2.9-2.9-4.9-3.8-2-.9-4.3-1.3-7-1.3h-10.6v37.7H178c2.7 0 5-.4 7-1.3s3.6-2.1 4.9-3.8c1.3-1.6 2.2-3.6 2.8-5.9.6-2.3.9-4.9.9-7.7 0-2.9-.3-5.5-.9-7.8-.6-2.4-1.6-4.4-2.8-6.1zm-6.8 22.2c-1.3 1.9-3 2.9-5 2.9H176V200h2.1c2.1 0 3.7 1 5 2.9 1.3 1.9 1.9 4.8 1.9 8.6.1 3.7-.6 6.5-1.9 8.4zm23.8-5.4h9.3v-7h-9.3v-7.4H217v-7.5h-18.2v37.7h18.8v-7.7h-10.7v-8.1zm52.4 4.3h-.2l-4.3-26.2h-8.2l-4.1 26.2h-.2l-3.9-26.2h-8.7l7.1 37.7h9l4.6-25.3h.1l4.6 25.3h9l7.1-37.7H263l-3.7 26.2zm15.8 11.5h8.6v-37.7h-8.6v37.7zm11.9-37.7v7.2h6.9v30.4h8.4v-30.4h6.9v-7.2H287z" id="de_wit"/><path class="st1" d="M145.8 260.3h-7.4v-12h-7.1v31.6h7.1v-13.2h7.4v13.2h7.1v-31.6h-7.1v12zm19.6 6.4h7.8v-5.9h-7.8v-6.2h8.4v-6.3h-15.3v31.6h15.8v-6.4h-9v-6.8zm35-18.4h-8l-6.5 13.2h-.1v-13.2h-7.2v31.6h7.2v-14.7h.1l6.7 14.7h8.3l-8.6-17.2 8.1-14.4zm25.4 22h-.1l-3.6-22h-6.9l-3.4 22h-.2l-3.3-22H201l5.9 31.6h7.6l3.8-21.2h.1l3.9 21.2h7.6l6-31.6H229l-3.2 22zm20.2-3.6h7.8v-5.9H246v-6.2h8.4v-6.3h-15.3v31.6H255v-6.4h-9v-6.8zm30.1-1.8c.5-.4 1-1 1.4-1.6.4-.7.8-1.4 1-2.4.3-.9.4-2 .4-3.1 0-3.2-.8-5.5-2.5-7.1-1.7-1.6-4.1-2.4-7.1-2.4h-10.1v31.6h6.9v-12.6h2.1l4.2 12.6h7.5l-5.4-14.1c.5-.2 1-.5 1.6-.9zm-5.3-3.6c-.8.6-1.6 1-2.7 1H266v-8h2.2c.4 0 .8.1 1.3.2.4.1.8.3 1.2.6.4.3.6.7.9 1.2.2.5.3 1.2.3 2 0 1.3-.3 2.4-1.1 3zm34.4-13h-8l-6.5 13.2h-.1v-13.2h-7.2v31.6h7.2v-14.7h.1l6.7 14.7h8.3l-8.6-17.2 8.1-14.4zm10.3 18.4h7.8v-5.9h-7.8v-6.2h8.4v-6.3h-15.3v31.6h15.8v-6.4h-9v-6.8zm28.4-18.4l.1 19.5h-.1l-7.3-19.5h-7.9v31.6h6.4l-.2-19.3h.1l7.3 19.3h7.6v-31.6h-6z" id="hekwerken"/><path d="M63 216.2l4.1 7.6-7.6-4.1-2.2 2.2 4.1 7.6-7.5-4.1-2.2 2.2 11 5.3 2.1-2.1-3.9-7.5 7.6 3.9 2.1-2.1-5.3-11-2.3 2.1zm13.7-13.6l4.1 7.6-7.6-4.1-2.2 2.2 4.1 7.6-7.5-4.1-2.2 2.2 11 5.3 2.1-2.1-3.9-7.5 7.6 3.9 2.1-2.1-5.3-11-2.3 2.1zm13.6-13.7l4.1 7.6-7.6-4.1-2.2 2.2 4.1 7.6-7.5-4.1-2.2 2.2 11 5.3 2.1-2.1-3.9-7.5 7.6 3.9 2.1-2.1-5.3-11-2.3 2.1zm10.8 1.3c-.5 0-1 .2-1.3.6-.4.4-.6.8-.6 1.4 0 .5.2 1 .5 1.3.2.2.4.3.6.4.2.1.5.1.7.1.2 0 .5-.1.7-.2.2-.1.4-.2.6-.4.4-.4.6-.8.6-1.4 0-.5-.2-1-.5-1.3-.3-.4-.8-.5-1.3-.5zm-2-19.5l5.7 5.7-.1.1h-.8c-.3 0-.6.1-1 .2-.3.1-.7.2-1.1.5-.4.2-.8.5-1.1.9-.6.6-1 1.2-1.3 1.9-.3.7-.4 1.4-.3 2.2 0 .7.2 1.5.5 2.2.3.7.8 1.4 1.4 2 .6.6 1.3 1.1 2 1.4.7.3 1.4.5 2.2.6.7 0 1.5-.1 2.2-.3.7-.3 1.4-.7 2-1.3.6-.6 1-1.2 1.2-2 .3-.8.3-1.5.1-2.3l1.2 1.2 1.9-1.9L101 169l-1.9 1.7zm7.7 7.9c.4.2.8.5 1.1.8.3.3.6.7.8 1.1.2.4.3.9.4 1.3 0 .5 0 .9-.2 1.4-.1.4-.4.9-.8 1.2-.4.4-.8.7-1.3.8-.5.1-.9.2-1.3.1s-.9-.2-1.3-.4-.8-.5-1.1-.8c-.3-.3-.6-.7-.8-1.1-.2-.4-.4-.8-.4-1.3-.1-.4 0-.9.1-1.3s.4-.9.8-1.3.8-.6 1.2-.8c.5-.1.9-.2 1.4-.1.6.1 1 .2 1.4.4zm13.3-8.1c.1.6.1 1.1-.1 1.6s-.5 1.1-1 1.6c-.3.3-.6.5-1 .7-.4.2-.8.3-1.1.3-.4 0-.8 0-1.1-.1-.4-.1-.7-.3-1-.6l6.2-6.2-.3-.3-.3-.3c-.7-.7-1.5-1.3-2.2-1.6-.7-.4-1.5-.5-2.2-.6-.7 0-1.4.1-2.1.4-.7.3-1.3.7-1.9 1.3-.6.6-1.1 1.3-1.4 2-.3.7-.5 1.5-.5 2.3 0 .8.2 1.5.5 2.3.3.8.8 1.5 1.5 2.1.7.7 1.4 1.2 2.1 1.5.7.3 1.5.4 2.3.4.8 0 1.5-.2 2.2-.5.7-.3 1.4-.8 2-1.5 1.5-1.5 2.2-3.2 1.9-5.1l-2.5.3zm-6.9 2.1c-.5-.6-.8-1.3-.7-2.1.1-.8.4-1.5 1-2.1.3-.3.7-.6 1-.7.4-.1.7-.2 1-.2.3 0 .7.1 1 .3l.9.6-4.2 4.2zm15.1-21.7l4.1 7.6-7.6-4.1-2.2 2.2 4.1 7.6-7.5-4.1-2.2 2.2 11 5.3 2.1-2.1-3.9-7.5 7.6 3.9 2.1-2.1-5.3-11-2.3 2.1zm3.5-3.4l8.2 8.2 2-2-8.2-8.2-2 2zm-1.9-2c.5 0 .9-.2 1.3-.6.4-.4.6-.8.6-1.3s-.1-.9-.5-1.3-.8-.5-1.3-.5-.9.2-1.3.6c-.4.4-.6.8-.6 1.3s.2.9.5 1.2c.5.4.9.6 1.3.6zm16.8.3c-.1.2-.3.3-.4.5-.5.5-.9.6-1.2.5-.4-.1-.7-.3-1.1-.7l-3.8-3.8 2-2-1.6-1.6-2 2-2.4-2.4-2 2 2.4 2.4-1.4 1.4 1.6 1.6 1.4-1.4 3.8 3.8c.4.4.8.7 1.2 1 .4.3.9.4 1.3.5.5.1.9 0 1.4-.2.5-.2 1-.6 1.6-1.1.2-.2.4-.5.7-.8.2-.3.4-.6.5-.8l-1.7-1.5-.3.6zm4.6-14.2c-.5-.3-1-.5-1.6-.5-.5-.1-1.1 0-1.7.2-.6.2-1.1.6-1.6 1.1-.3.3-.5.6-.7 1-.2.3-.3.7-.4 1-.1.3-.1.7-.1 1 0 .3.1.6.2.8l-5.8-5.8-2 2 12.8 12.8 2-2-4.5-4.5c-.3-.3-.5-.6-.7-.9-.2-.3-.3-.7-.3-1.1-.1-.4 0-.7.1-1.1.1-.4.3-.7.7-1 .3-.3.7-.5 1-.6.3-.1.7 0 1 .1.3.1.6.3.9.5.3.2.6.5.8.7l4.5 4.5 2-2-5.1-5.1c-.5-.4-1-.8-1.5-1.1zm12.4-4.7c.1.6.1 1.1-.1 1.6s-.5 1.1-1 1.6c-.3.3-.6.5-1 .7-.4.2-.8.3-1.1.3-.4 0-.8 0-1.1-.1-.4-.1-.7-.3-1-.6l6.2-6.2-.3-.3-.3-.3c-.7-.7-1.5-1.3-2.2-1.6-.7-.4-1.5-.5-2.2-.6-.7 0-1.4.1-2.1.4-.7.3-1.3.7-1.9 1.3-.6.6-1.1 1.3-1.4 2-.3.7-.5 1.5-.5 2.3 0 .8.1 1.5.5 2.3.3.8.8 1.5 1.5 2.1.7.7 1.4 1.2 2.1 1.5.7.3 1.5.4 2.3.4.8 0 1.5-.2 2.2-.5.7-.3 1.4-.8 2-1.5 1.5-1.5 2.2-3.2 1.9-5.1l-2.5.3zm-6.9 2c-.5-.6-.8-1.3-.7-2.1.1-.8.4-1.5 1-2.1.3-.3.7-.6 1-.7.4-.1.7-.2 1-.2.3 0 .7.1 1 .3l.9.6-4.2 4.2zm12.8-19.2l-2.6 2.6.3 6.5-.1.1-8.1-8.1-2 2 12.8 12.8 2-2-4.2-4.2.1-.1 7.4 1 2.7-2.7-8.2-.7-.1-7.2zM181.2 98l4.1 7.6-7.6-4.1-2.2 2.2 4.1 7.6-7.5-4.1-2.2 2.2 11 5.3 2.1-2.1-3.9-7.5 7.6 3.9 2.1-2.1-5.3-11-2.3 2.1zm15.2-3.8c.1.6.1 1.1-.1 1.6s-.5 1.1-1 1.6c-.3.3-.6.5-1 .7-.4.2-.8.3-1.1.3-.4 0-.8 0-1.1-.1-.4-.1-.7-.3-1-.6l6.2-6.2-.3-.3-.3-.3c-.7-.7-1.5-1.3-2.2-1.6-.7-.4-1.5-.5-2.2-.6-.7 0-1.4.1-2.1.4-.7.3-1.3.7-1.9 1.3-.6.6-1.1 1.3-1.4 2-.3.7-.5 1.5-.5 2.3 0 .8.2 1.5.5 2.3.3.8.8 1.5 1.5 2.1.7.7 1.4 1.2 2.1 1.5.7.3 1.5.4 2.3.4.8 0 1.5-.2 2.2-.5.7-.3 1.4-.8 2-1.5 1.5-1.5 2.2-3.2 1.9-5.1l-2.5.3zm-6.9 2.1c-.5-.6-.8-1.3-.7-2.1.1-.8.4-1.5 1-2.1.3-.3.7-.6 1-.7.4-.1.7-.2 1-.2.3 0 .7.1 1 .3l.9.6-4.2 4.2zm10.2-10.4c-.2-.3-.3-.7-.4-1.1-.1-.4-.1-.8.1-1.3.1-.5.4-.9.9-1.4l.3-.3c.1-.1.2-.2.4-.3l-1.9-1.9c-.1 0-.2.1-.3.2-.1.1-.2.2-.3.2-.5.5-.9 1.2-1 1.9-.1.7 0 1.4.2 2.1l-1.4-1.4-2 2 8.2 8.2 2-2-4.4-4.4c0 .1-.2-.2-.4-.5zm8.7-15.1l-2.6 2.6.3 6.5-.1.1-8.1-8.1-2 2 12.8 12.8 2-2-4.2-4.2.1-.1 7.4 1 2.7-2.7-8.2-.7-.1-7.2zm9.4 2.7c-.5 0-1 .2-1.3.6-.4.4-.6.8-.6 1.4 0 .5.2 1 .5 1.3.2.2.4.3.6.4.2.1.5.1.7.1.2 0 .5-.1.7-.2.2-.1.4-.2.6-.4.4-.4.6-.8.6-1.4 0-.5-.2-1-.5-1.3-.4-.3-.8-.5-1.3-.5zm5.6-14c-.5-.3-1-.5-1.6-.5-.5-.1-1.1 0-1.7.2-.6.2-1.1.6-1.6 1.1-.6.6-1 1.3-1.1 2.1-.1.8-.1 1.4.1 2l-1.3-1.3-1.9 1.9 8.2 8.2 2-2-4.5-4.5c-.3-.3-.5-.6-.7-.9-.2-.3-.3-.7-.4-1.1-.1-.4 0-.7.1-1.1.1-.4.3-.7.7-1 .3-.3.7-.5 1-.6.3-.1.7 0 1 .1.3.1.6.3.9.5.3.2.6.5.8.7l4.5 4.5 2-2-5.1-5.1c-.4-.6-.9-.9-1.4-1.2zm-1.9-11.1l-2 2 12.8 12.8 2-2-12.8-12.8z" id="www.dewithekwerk.nl"/><path d="M86.5 280.1l5.5 5.5 1.8-1.8-5.5-5.5 3.1-3.1 5.8 5.8 1.9-1.9-8-8-12 12 8.3 8.3 1.9-1.9-6.1-6.1 3.3-3.3zm14.8 5.3c.5 0 .9-.1 1.3-.5s.5-.8.5-1.3-.2-.9-.6-1.3c-.4-.4-.8-.6-1.3-.6s-.9.2-1.2.5c-.3.3-.5.7-.5 1.2s.2.9.6 1.3c.3.5.7.7 1.2.7zm-1.8 2l-2-2-8.2 8.2 2 2 8.2-8.2zm8.9 8.8l-1.2 1.2c.2-.8.2-1.6-.1-2.3-.3-.7-.7-1.4-1.3-2-.6-.6-1.3-1.1-2-1.3-.7-.3-1.4-.4-2.2-.3-.7 0-1.5.2-2.2.6-.7.3-1.4.8-1.9 1.4-.6.6-1 1.2-1.4 1.9-.3.7-.5 1.4-.5 2.2 0 .7.1 1.5.3 2.2.3.7.7 1.4 1.3 2 .6.6 1.2 1 1.9 1.2.7.2 1.4.3 2 .2l-.6.6c-.4.4-.8.7-1.3 1-.4.3-.9.4-1.3.5-.4.1-.9 0-1.4-.2-.5-.2-1-.5-1.4-1-.5-.5-.9-1.1-1.2-1.8-.3-.7-.5-1.4-.5-2.2l-2.8.4c0 .5.1 1 .3 1.5l.6 1.5c.2.5.5.9.8 1.3.3.4.6.8 1 1.1.8.8 1.6 1.4 2.4 1.7.8.4 1.6.5 2.4.5.8 0 1.6-.3 2.4-.7.8-.4 1.5-1 2.3-1.7l7.4-7.4-1.8-2.1zm-3.2 2.9c-.2.4-.5.8-.8 1.2-.3.3-.7.6-1.1.8-.4.2-.9.3-1.3.3s-.9 0-1.3-.2-.8-.4-1.2-.8c-.4-.4-.6-.8-.8-1.2-.1-.4-.2-.9-.1-1.3 0-.4.2-.9.4-1.3s.5-.8.8-1.1c.4-.4.8-.6 1.2-.9.4-.2.9-.3 1.3-.4.4 0 .9 0 1.3.2s.8.4 1.2.8c.4.4.6.8.8 1.2.2.4.2.9.2 1.3-.3.5-.4 1-.6 1.4zm6.3 13.2c-.5-.2-1.1-.5-1.6-1-.3-.3-.5-.6-.7-1-.2-.4-.3-.8-.3-1.1 0-.4 0-.8.1-1.1.1-.4.3-.7.6-1l6.2 6.2.3-.3.3-.3c.7-.7 1.3-1.5 1.6-2.2.4-.7.5-1.5.6-2.2 0-.7-.1-1.4-.4-2.1-.3-.7-.7-1.3-1.3-1.9-.6-.6-1.3-1.1-2-1.4-.7-.3-1.5-.5-2.3-.5-.8 0-1.5.2-2.3.5-.8.3-1.5.8-2.1 1.5-.7.7-1.2 1.4-1.5 2.1-.3.7-.4 1.5-.4 2.3 0 .8.2 1.5.5 2.2.3.7.8 1.4 1.5 2 1.5 1.5 3.2 2.2 5.1 1.9l-.3-2.4c-.5-.1-1.1-.1-1.6-.2zm1.7-7.6c.8.1 1.5.4 2.1 1 .3.3.6.7.7 1 .1.4.2.7.2 1 0 .3-.1.7-.3 1l-.6.9-4.2-4.2c.6-.5 1.3-.7 2.1-.7zm14 9.9c-.6-.6-1.3-1-2.1-1.1-.8-.1-1.4-.1-2 .1l1.3-1.3-1.9-1.9-8.2 8.2 2 2 4.5-4.5c.3-.3.6-.5.9-.7.3-.2.7-.3 1.1-.4.4-.1.7 0 1.1.1.4.1.7.3 1 .7.3.3.5.7.6 1 .1.3 0 .7-.1 1-.1.3-.3.6-.5.9-.2.3-.5.6-.7.8l-4.5 4.5 2 2 5.1-5.1c.4-.4.8-.9 1.1-1.4.3-.5.5-1 .5-1.6.1-.5 0-1.1-.2-1.7s-.4-1-1-1.6zm10.3 20.1c.1-.4.1-.9.1-1.3-.1-.4-.2-.9-.4-1.3s-.4-.8-.7-1.2c-.4-.7-.7-1.3-.9-1.7-.2-.4-.1-.8.2-1.1.3-.3.7-.4 1.1-.3.4.1.8.4 1.1.7.4.4.6.8.8 1.3.1.5.2.9.1 1.4l2.5.2c.1-.7 0-1.5-.4-2.3-.4-.8-.8-1.4-1.4-2-.4-.4-.9-.8-1.3-1-.5-.3-1-.5-1.5-.6-.5-.1-1-.1-1.5.1-.5.1-1 .4-1.5.9-.4.4-.6.8-.8 1.2-.1.4-.2.8-.1 1.2l.3 1.2.6 1.2c.5.8.8 1.4 1 1.8.2.5.1.9-.3 1.2-.2.2-.4.3-.6.3h-.6c-.2-.1-.4-.1-.6-.3-.2-.1-.4-.3-.5-.4-.4-.4-.7-.9-.9-1.5-.2-.6-.2-1.1-.2-1.6l-2.6-.1c0 .8.1 1.7.5 2.5s.9 1.6 1.5 2.2c.4.4.9.8 1.4 1.1.5.3 1 .5 1.6.6.5.1 1.1.1 1.6-.1s1-.5 1.5-1c.5-.4.8-.9.9-1.3zm12.2 6.6c.3-.5.5-1 .5-1.6.1-.5 0-1.1-.2-1.7-.2-.6-.6-1.1-1.1-1.6-.3-.3-.6-.5-1-.7-.3-.2-.7-.3-1-.4-.3-.1-.7-.1-1-.1-.3 0-.6.1-.8.2l5.8-5.8-2-2-12.8 12.8 2 2 4.5-4.5c.3-.3.6-.5.9-.7.3-.2.7-.3 1.1-.3.4-.1.7 0 1.1.1.4.1.7.3 1 .7.3.3.5.7.6 1 .1.3 0 .7-.1 1-.1.3-.3.6-.5.9-.2.3-.5.6-.7.8l-4.5 4.5 2 2 5.1-5.1c.5-.6.8-1 1.1-1.5zm10.2 11c.3-.8.4-1.5.4-2.3 0-.8-.2-1.5-.5-2.3-.3-.7-.8-1.4-1.4-2-.6-.6-1.3-1.1-2-1.4-.7-.3-1.5-.5-2.3-.5-.8 0-1.5.1-2.3.4-.8.3-1.5.8-2.1 1.4-.6.6-1.1 1.4-1.4 2.1-.3.8-.4 1.5-.4 2.3 0 .8.2 1.5.5 2.3.3.8.8 1.4 1.4 2.1.6.6 1.3 1.1 2.1 1.4.8.3 1.5.5 2.3.5.8 0 1.5-.1 2.3-.4.8-.3 1.5-.8 2.1-1.4.5-.7 1-1.4 1.3-2.2zm-2.3-2.3c-.1.4-.2.9-.4 1.3s-.5.8-.8 1.1c-.3.3-.7.6-1.1.8-.4.2-.8.4-1.3.4-.4.1-.9 0-1.3-.1-.5-.1-.9-.4-1.3-.8s-.7-.8-.8-1.3c-.1-.5-.2-.9-.1-1.3s.2-.9.4-1.3.5-.8.8-1.1c.3-.3.7-.6 1.1-.8.4-.2.8-.4 1.3-.4.4-.1.9 0 1.3.1s.9.4 1.3.8.7.8.8 1.3c.1.4.1.8.1 1.3zm17.1 12.6l-7.6 4.1 4.1-7.6-2.2-2.2-7.6 4.1 4.1-7.5-2.2-2.2-5.3 11 2.1 2.1 7.5-3.9-3.9 7.6 2.1 2.1 11-5.3-2.1-2.3zm.1 13.4c-.5-.5-.6-.9-.5-1.2.1-.4.3-.7.7-1.1l3.8-3.8 2 2 1.6-1.6-2-2 2.4-2.4-2-2-2.4 2.4-1.4-1.4-1.6 1.6 1.4 1.4-3.8 3.8c-.4.4-.7.8-1 1.2-.3.4-.4.9-.5 1.3-.1.5 0 .9.2 1.4.2.5.6 1 1.1 1.6.2.2.5.4.8.7.3.2.6.4.8.5l1.5-1.7-.6-.3c-.2-.1-.4-.3-.5-.4zm14.5 1.2l-4.5 4.5c-.3.3-.6.5-.9.7-.3.2-.7.3-1.1.4-.4.1-.7 0-1.1-.1-.4-.1-.7-.3-1-.6-.3-.3-.5-.7-.6-1-.1-.3 0-.7.1-1 .1-.3.3-.6.5-.9.2-.3.5-.6.7-.8l4.5-4.5-2-2-5.1 5.1c-.4.4-.8.9-1.1 1.4-.3.5-.5 1-.5 1.6-.1.5 0 1.1.2 1.7.2.6.6 1.1 1.1 1.6.6.6 1.3 1 2.1 1.1.8.1 1.4.1 2-.1l-1.3 1.3 1.9 1.9 8.2-8.2-2.1-2.1zm4.5 4.5l-8.2 8.2 2 2 8.2-8.2-2-2zm3.9.1c.5 0 .9-.1 1.3-.5s.5-.8.5-1.3-.2-.9-.6-1.3c-.4-.4-.8-.6-1.3-.6s-.9.2-1.2.5c-.3.3-.5.7-.5 1.2s.2.9.6 1.3c.3.4.7.6 1.2.7zm6.5 10.3c-.2-.6-.6-1.1-1.1-1.6-.6-.6-1.3-1-2.1-1.1-.8-.1-1.4-.1-2 .1l1.3-1.3-1.9-1.9-8.2 8.2 2 2 4.5-4.5c.3-.3.6-.5.9-.7.3-.2.7-.3 1.1-.4.4-.1.7 0 1.1.1.4.1.7.3 1 .7.3.3.5.7.6 1 .1.3 0 .7-.1 1-.1.3-.3.6-.5.9-.2.3-.5.6-.7.8l-4.5 4.5 2 2 5.1-5.1c.4-.4.8-.9 1.1-1.4.3-.5.5-1 .5-1.6.1-.5.1-1.1-.1-1.7z" id="Eigen_showtuin"/><path d="M302 371.1c-1.1-1.1-2.3-1.9-3.4-2.3-1.2-.4-2.3-.5-3.4-.3s-2.2.5-3.2 1.1c-1 .6-1.9 1.3-2.7 2.1L285 376l12 12 4.3-4.3c.8-.8 1.5-1.7 2-2.7.6-1 .9-2.1 1.1-3.2.1-1.1 0-2.3-.3-3.4s-1.1-2.2-2.1-3.3zm-.5 7.1c-.1.8-.4 1.5-.8 2.2-.4.7-.9 1.3-1.5 1.9l-1.8 1.8-8.3-8.3 1.8-1.8c.6-.6 1.2-1.1 1.8-1.5.7-.4 1.4-.7 2.1-.9.8-.1 1.5-.1 2.4.2.8.3 1.7.8 2.5 1.7.8.8 1.3 1.6 1.6 2.4.2.8.3 1.6.2 2.3zm12.8-15.6c-.6-.6-1.3-1.1-2.1-1.4-.8-.3-1.5-.4-2.3-.4-.8 0-1.5.2-2.3.5-.7.3-1.4.8-2 1.4-.6.6-1.1 1.3-1.4 2-.3.7-.5 1.5-.5 2.3 0 .8.1 1.5.4 2.3.3.8.8 1.5 1.4 2.1.6.6 1.4 1.1 2.1 1.4.8.3 1.5.4 2.3.4.8 0 1.5-.2 2.3-.5.8-.3 1.4-.8 2.1-1.4.6-.6 1.1-1.3 1.4-2.1.3-.8.5-1.5.5-2.3 0-.8-.1-1.5-.4-2.3-.4-.6-.9-1.3-1.5-2zm-1 5.8c-.1.5-.4.9-.8 1.3s-.8.7-1.3.8c-.5.1-.9.2-1.3.1s-.9-.2-1.3-.4-.8-.5-1.1-.8c-.3-.3-.6-.7-.8-1.1-.2-.4-.4-.8-.4-1.3-.1-.4 0-.9.1-1.3s.4-.9.8-1.3.8-.7 1.3-.8c.4-.1.9-.2 1.3-.1s.9.2 1.3.4.8.5 1.1.8c.3.3.6.7.8 1.1.2.4.4.8.4 1.3.1.4 0 .9-.1 1.3zm.4-22.7l5.7 5.7-.1.1h-.8c-.3 0-.6.1-1 .2-.3.1-.7.2-1.1.5-.4.2-.8.5-1.1.9-.6.6-1 1.2-1.3 1.9-.3.7-.4 1.4-.3 2.2 0 .7.2 1.5.5 2.2.3.7.8 1.4 1.4 2 .6.6 1.3 1.1 2 1.4.7.3 1.4.5 2.2.6.7 0 1.5-.1 2.2-.3.7-.3 1.4-.7 2-1.3.6-.6 1-1.2 1.2-2 .3-.8.3-1.5.1-2.3l1.2 1.2 1.9-1.9-12.8-12.8-1.9 1.7zm7.8 7.9c.4.2.8.5 1.1.8.3.3.6.7.8 1.1.2.4.3.9.4 1.3 0 .5 0 .9-.2 1.4-.1.4-.4.9-.8 1.2-.4.4-.8.7-1.3.8-.5.1-.9.2-1.3.1s-.9-.2-1.3-.4-.8-.5-1.1-.8c-.3-.3-.6-.7-.8-1.1-.2-.4-.4-.8-.4-1.3-.1-.4 0-.9.1-1.3s.4-.9.8-1.3.8-.6 1.2-.8c.5-.1.9-.2 1.4-.1.5.1.9.2 1.4.4zm13.2-8.1c.1.6.1 1.1-.1 1.6s-.5 1.1-1 1.6c-.3.3-.6.5-1 .7-.4.2-.8.3-1.1.3-.4 0-.8 0-1.1-.1-.4-.1-.7-.3-1-.6l6.2-6.2-.3-.3-.3-.3c-.7-.7-1.5-1.3-2.2-1.6-.7-.4-1.5-.5-2.2-.6-.7 0-1.4.1-2.1.4-.7.3-1.3.7-1.9 1.3-.6.6-1.1 1.3-1.4 2-.3.7-.5 1.5-.5 2.3 0 .8.2 1.5.5 2.3.3.8.8 1.5 1.5 2.1.7.7 1.4 1.2 2.1 1.5.7.3 1.5.4 2.3.4.8 0 1.5-.2 2.2-.5.7-.3 1.4-.8 2-1.5 1.5-1.5 2.2-3.2 1.9-5.1l-2.5.3zm-6.9 2.1c-.5-.6-.8-1.3-.7-2.1.1-.8.4-1.5 1-2.1.3-.3.7-.6 1-.7.4-.1.7-.2 1-.2.3 0 .7.1 1 .3l.9.6-4.2 4.2zm15.2-21.7l4.1 7.6-7.6-4.1-2.2 2.2 4.1 7.6-7.5-4.1-2.2 2.2 11 5.3 2.1-2.1-3.9-7.5 7.6 3.9 2.1-2.1-5.3-11-2.3 2.1zm12.1-8.3c-.5-.3-1.1-.5-1.7-.5-.6-.1-1.2 0-1.9.3s-1.4.8-2.1 1.5c-.6.6-1.1 1.3-1.5 2.2-.4.8-.6 1.7-.6 2.6l2.3.2c0-.5.1-1.1.3-1.6.2-.6.5-1.1 1-1.5.5-.5 1.1-.8 1.7-1 .6-.1 1.2.1 1.7.6l.2.2c-.6.6-1.3 1.3-1.9 2-.6.7-1.1 1.5-1.4 2.2-.4.7-.5 1.5-.5 2.2 0 .7.3 1.4.9 2 .5.5 1 .8 1.5.9.5.1 1 .1 1.5 0s1-.3 1.4-.6l1.2-.9c.6-.6 1-1.2 1.2-1.9.2-.7.3-1.3.1-1.9l.1-.1 1 1 1.9-1.9-5-5c-.4-.3-.8-.7-1.4-1zm1 8.8c-.2.2-.4.3-.6.5l-.6.3c-.2.1-.4.1-.6 0-.2 0-.4-.2-.6-.4-.3-.3-.4-.6-.4-1s.1-.8.4-1.2c.2-.4.5-.8.8-1.2.3-.4.7-.8 1-1.1l.5-.5.3.3c.6.6 1 1.3 1 2.1-.2.8-.5 1.5-1.2 2.2zm8.4-18.1c-.5-.3-1.1-.5-1.7-.5-.6-.1-1.2 0-1.9.3s-1.4.8-2.1 1.5c-.6.6-1.1 1.3-1.5 2.2-.4.8-.6 1.7-.6 2.6l2.3.2c0-.5.1-1.1.3-1.6.2-.6.5-1.1 1-1.5.5-.5 1.1-.8 1.7-1 .6-.1 1.2.1 1.7.6l.2.2c-.6.6-1.3 1.3-1.9 2-.6.7-1.1 1.5-1.4 2.2-.4.7-.5 1.5-.5 2.2 0 .7.3 1.4.9 2 .5.5 1 .8 1.5.9.5.1 1 .1 1.5 0s1-.3 1.4-.6l1.2-.9c.6-.6 1-1.2 1.2-1.9.2-.7.3-1.3.1-1.9l.1-.1 1 1 1.9-1.9-5-5c-.4-.4-.9-.7-1.4-1zm.9 8.7c-.2.2-.4.3-.6.5l-.6.3c-.2.1-.4.1-.6 0-.2 0-.4-.2-.6-.4-.3-.3-.4-.6-.4-1s.1-.8.4-1.2c.2-.4.5-.8.8-1.2.3-.4.7-.8 1-1.1l.5-.5.3.3c.6.6 1 1.3 1 2.1-.1.8-.5 1.5-1.2 2.2zm5-12.2c-.2-.3-.3-.7-.4-1.1-.1-.4-.1-.8.1-1.3.1-.5.4-.9.9-1.4l.3-.3c.1-.1.2-.2.4-.3l-1.9-1.9c-.1 0-.2.1-.3.2-.1.1-.2.2-.3.2-.5.5-.9 1.2-1 1.9-.1.7 0 1.4.2 2.1l-1.4-1.4-2 2 8.2 8.2 2-2-4.4-4.4c-.1.1-.2-.2-.4-.5zm15-5.1l1.9-1.9-12.8-12.8-2 2 5.7 5.7-.1.1h-.8c-.3 0-.6.1-1 .2-.3.1-.7.2-1.1.5-.4.2-.8.5-1.1.9-.6.6-1 1.2-1.3 1.9-.3.7-.4 1.4-.3 2.2 0 .7.2 1.5.5 2.2.3.7.8 1.4 1.4 2 .6.6 1.3 1.1 2 1.4.7.3 1.4.5 2.2.6.7 0 1.5-.1 2.2-.3.7-.3 1.4-.7 2-1.3.6-.6 1-1.2 1.2-2 .3-.8.3-1.5.1-2.3l1.3.9zm-3.1-.3c-.1.4-.4.9-.8 1.2-.4.4-.8.7-1.3.8-.5.1-.9.2-1.3.1s-.9-.2-1.3-.4-.8-.5-1.1-.8c-.3-.3-.6-.7-.8-1.1-.2-.4-.4-.8-.4-1.3-.1-.4 0-.9.1-1.3s.4-.9.8-1.3.8-.6 1.2-.8c.5-.1.9-.2 1.4-.1.5 0 .9.2 1.3.4s.8.5 1.1.8c.3.3.6.7.8 1.1.2.4.3.9.4 1.3.1.5.1 1-.1 1.4z" id="Dodewaard"/><path d="M294.2 95.6c.6-1 1-1.9 1.2-2.8.2-.9.2-1.8-.1-2.6-.2-.8-.7-1.6-1.4-2.3-.7-.7-1.4-1.1-2.3-1.4-.8-.2-1.7-.3-2.6-.1-.9.2-1.8.6-2.8 1.2-1 .6-1.9 1.4-2.9 2.4s-1.8 1.9-2.4 2.9c-.6 1-1 1.9-1.2 2.8-.2.9-.2 1.8.1 2.6.2.8.7 1.6 1.4 2.3.7.7 1.4 1.1 2.3 1.4.8.2 1.7.3 2.6.1.9-.2 1.8-.6 2.8-1.2 1-.6 1.9-1.4 2.9-2.4 1-.9 1.8-1.9 2.4-2.9zm-4.5.9c-.4.4-.9.9-1.5 1.4-.6.5-1.2.9-1.8 1.2-.6.3-1.2.5-1.8.5-.6 0-1.1-.2-1.6-.6-.5-.5-.7-1-.6-1.6 0-.6.2-1.2.5-1.8.3-.6.7-1.2 1.2-1.8.5-.6.9-1.1 1.3-1.5.4-.4.9-.9 1.5-1.3.6-.5 1.2-.9 1.8-1.2.6-.3 1.2-.5 1.9-.5.6 0 1.1.2 1.6.6.5.5.7 1 .6 1.6 0 .6-.2 1.2-.5 1.9-.3.6-.7 1.2-1.2 1.8-.5.4-1 .9-1.4 1.3zm9.2 12.7l7.8-7.8-2.4-2.4-12.9 2.6-1.8 1.8 5.6 5.6-2.5 2.5 2 2 2.5-2.5 1.7 1.7 1.8-1.8-1.8-1.7zm-2-2l-3.5-3.5 8.8-2-5.3 5.5zm14.2 12.1c.1-.5 0-.9-.1-1.4-.1-.4-.3-.9-.5-1.3.7.4 1.5.5 2.3.4.8-.1 1.6-.5 2.3-1.2.5-.5.9-1.1 1.1-1.7.2-.6.3-1.2.2-1.8-.1-.6-.3-1.2-.6-1.9-.3-.6-.7-1.2-1.3-1.7-.5-.5-1.1-.9-1.7-1.2-.6-.3-1.2-.5-1.9-.5-.6-.1-1.3 0-1.9.2-.6.2-1.2.6-1.7 1.1-.7.7-1.1 1.4-1.2 2.2-.1.8.1 1.5.4 2.3-.4-.2-.8-.4-1.2-.5-.4-.1-.9-.1-1.3-.1-.5 0-.9.2-1.4.4-.5.2-.9.5-1.3.9-.6.6-1 1.2-1.3 1.9-.2.7-.3 1.4-.3 2.1.1.7.3 1.4.6 2 .4.7.8 1.3 1.4 1.9.6.6 1.2 1 1.9 1.4.7.4 1.4.6 2 .6.7.1 1.4 0 2.1-.3.7-.2 1.3-.7 1.9-1.3.4-.4.7-.8.9-1.2.4-.4.6-.8.6-1.3zm-2.7-.5c-.1.4-.4.7-.7 1-.6.6-1.3.9-2.1.9s-1.4-.4-2-1c-.6-.6-.9-1.3-1-2 0-.7.3-1.4.9-2.1.3-.3.6-.5 1-.7.4-.1.7-.2 1.1-.2.4 0 .7.1 1.1.2.4.2.7.4 1 .7.3.3.5.6.7 1 .2.4.2.7.2 1.1.1.3 0 .7-.2 1.1zm1.1-4.9c-.5-.5-.8-1.1-.8-1.8s.3-1.2.8-1.7 1.1-.8 1.7-.8c.6 0 1.2.3 1.7.8.2.2.4.5.5.8.1.3.2.6.2.9 0 .3 0 .6-.1.9-.1.3-.3.6-.6.8-.2.2-.5.4-.8.5-.3.1-.6.2-.9.2-.3 0-.6-.1-.9-.2-.3 0-.6-.2-.8-.4zm11.4 13.2c.8.3 1.5.4 2.3.3.8-.1 1.6-.5 2.3-1.2.5-.5.9-1.1 1.1-1.7.2-.6.3-1.2.2-1.8-.1-.6-.3-1.2-.6-1.9-.3-.6-.7-1.2-1.3-1.7-.5-.5-1.1-.9-1.7-1.2-.6-.3-1.2-.5-1.9-.5-.6-.1-1.3 0-1.9.2-.6.2-1.2.6-1.7 1.1-.7.7-1.1 1.4-1.2 2.2-.1.8.1 1.5.4 2.3-.4-.2-.8-.4-1.2-.5-.4-.1-.9-.1-1.3-.1-.5 0-.9.2-1.4.4-.5.2-.9.5-1.3.9-.6.6-1 1.2-1.3 1.9-.2.7-.3 1.4-.3 2.1.1.7.3 1.4.6 2 .4.7.8 1.3 1.4 1.9.6.6 1.2 1 1.9 1.4.7.4 1.4.6 2 .6.7.1 1.4 0 2.1-.3.7-.2 1.3-.7 1.9-1.3.4-.4.7-.8.9-1.2.2-.4.3-.9.4-1.3.1-.5 0-.9-.1-1.4.1-.4 0-.8-.3-1.2zm-2.1 2c-.1.4-.4.7-.7 1-.6.6-1.3.9-2.1.9s-1.4-.4-2-1c-.6-.6-.9-1.3-1-2 0-.8.3-1.4.9-2.1.3-.3.6-.5 1-.7.4-.1.7-.2 1.1-.2.4 0 .7.1 1.1.2.4.2.7.4 1 .7.3.3.5.6.7 1 .2.4.2.7.2 1.1 0 .4 0 .8-.2 1.1zm1.1-4.9c-.5-.5-.8-1.1-.8-1.8s.3-1.2.8-1.7 1.1-.8 1.7-.8c.6 0 1.2.3 1.7.8.2.2.4.5.5.8.1.3.2.6.2.9 0 .3 0 .6-.1.9-.1.3-.3.6-.6.8-.2.2-.5.4-.8.5-.3.1-.6.2-.9.2-.3 0-.6-.1-.9-.2-.3.1-.6-.1-.8-.4zm3.7 8.1l-1.7 1.7 4.1 4.1 1.7-1.7-4.1-4.1zm19.7 5.7l-2.4-2.4-12.9 2.6-1.8 1.8 5.6 5.6-2.5 2.5 2 2 2.5-2.5 1.7 1.7 1.8-1.8-1.7-1.7 7.7-7.8zm-9.8 5.7l-3.5-3.5 8.8-2-5.3 5.5zm17.1 1.6l-6.8-.7-.2 2.6 4.3.4-9.6 9.6 2 2 12-12-1.7-1.9zm7.4 19.5c.5 0 1-.1 1.5-.2s.9-.3 1.4-.5c.4-.2.8-.5 1.2-.9.6-.6 1-1.2 1.2-1.9.2-.7.3-1.3.2-2-.1-.7-.3-1.3-.6-2-.3-.6-.8-1.2-1.3-1.7-.6-.6-1.2-1-1.8-1.3-.6-.3-1.3-.5-2-.5s-1.3 0-2 .2c-.6.2-1.2.5-1.8 1l1.7 2.3c.7-.5 1.4-.8 2.1-.8.7 0 1.4.2 2 .8.5.5.8 1.2.9 1.9 0 .7-.2 1.3-.8 1.9-.5.5-1 .8-1.6.9-.6.1-1.3.2-2 .2l-9.2-.1-1.9 1.9 8 8 1.9-1.9-5.4-5.4 6.8.2c.5 0 1 0 1.5-.1zm11.5 10.2c0-.7-.1-1.4-.4-2-.3-.7-.7-1.3-1.2-1.8-.2-.2-.4-.4-.7-.6-.3-.2-.5-.4-.8-.5l7.5-1.4-2.5-2.5-7.7 1.6c-.5.1-1 .2-1.4.4-.4.1-.8.3-1.2.5-.4.2-.8.4-1.1.6-.4.2-.7.5-1 .9-.6.6-1 1.2-1.3 2-.3.7-.4 1.5-.4 2.2 0 .8.2 1.5.5 2.3.3.7.8 1.4 1.4 2.1.6.6 1.3 1.1 2 1.4.7.3 1.5.5 2.2.5.8 0 1.5-.1 2.3-.4.7-.3 1.4-.8 2.1-1.4.5-.5 1-1.2 1.2-1.8.4-.8.5-1.4.5-2.1zm-3 .7c-.2.4-.4.8-.8 1.1-.7.7-1.5 1.1-2.4 1.1-.9 0-1.6-.3-2.3-1-.4-.4-.6-.7-.8-1.1-.2-.4-.2-.8-.2-1.2 0-.4.1-.8.3-1.2.2-.4.4-.7.7-1.1.4-.4.7-.6 1.1-.8.4-.2.8-.3 1.2-.3.4 0 .8.1 1.2.3.4.2.8.4 1.1.8.3.3.6.7.7 1.1.2.4.2.8.2 1.2s.1.7 0 1.1zm16.1 8.4c.6-1 1-1.9 1.2-2.8.2-.9.2-1.8-.1-2.6-.2-.8-.7-1.6-1.4-2.3-.7-.7-1.4-1.1-2.3-1.4-.8-.2-1.7-.3-2.6-.1-.9.2-1.8.6-2.8 1.2-1 .6-1.9 1.4-2.9 2.4s-1.8 1.9-2.4 2.9c-.6 1-1 1.9-1.2 2.8-.2.9-.2 1.8.1 2.6.2.8.7 1.6 1.4 2.3.7.7 1.4 1.1 2.3 1.4.8.2 1.7.3 2.6.1.9-.2 1.8-.6 2.8-1.2 1-.6 1.9-1.4 2.9-2.4s1.8-2 2.4-2.9zm-4.5.8c-.4.4-.9.9-1.5 1.4-.6.5-1.2.9-1.8 1.2-.6.3-1.2.5-1.8.5-.6 0-1.1-.2-1.6-.6-.5-.5-.7-1-.6-1.6 0-.6.2-1.2.5-1.8.3-.6.7-1.2 1.2-1.8.5-.6.9-1.1 1.3-1.5.4-.4.9-.9 1.5-1.3.6-.5 1.2-.9 1.8-1.2.6-.3 1.2-.5 1.9-.5.6 0 1.1.2 1.6.6.5.5.7 1 .6 1.6 0 .6-.2 1.2-.5 1.9-.3.6-.7 1.2-1.2 1.8-.5.4-.9.9-1.4 1.3zm16 4.1c-.2-.8-.7-1.6-1.4-2.3-.7-.7-1.4-1.1-2.3-1.4-.8-.2-1.7-.3-2.6-.1-.9.2-1.8.6-2.8 1.2-1 .6-1.9 1.4-2.9 2.4s-1.8 1.9-2.4 2.9c-.6 1-1 1.9-1.2 2.8-.2.9-.2 1.8.1 2.6.2.8.7 1.6 1.4 2.3.7.7 1.4 1.1 2.3 1.4.8.2 1.7.3 2.6.1.9-.2 1.8-.6 2.8-1.2 1-.6 1.9-1.4 2.9-2.4s1.8-1.9 2.4-2.9c.6-1 1-1.9 1.2-2.8.1-.9.1-1.7-.1-2.6zm-3 2.9c-.3.6-.7 1.2-1.2 1.8-.5.6-.9 1.1-1.4 1.5-.4.4-.9.9-1.5 1.4-.6.5-1.2.9-1.8 1.2-.6.3-1.2.5-1.8.5-.6 0-1.1-.2-1.6-.6-.5-.5-.7-1-.6-1.6 0-.6.2-1.2.5-1.8.3-.6.7-1.2 1.2-1.8.5-.6.9-1.1 1.3-1.5.4-.4.9-.9 1.5-1.3.6-.5 1.2-.9 1.8-1.2.6-.3 1.2-.5 1.9-.5.6 0 1.1.2 1.6.6.5.5.7 1 .6 1.6 0 .5-.2 1.1-.5 1.7z" id="_x30_488-412600"/></svg>