<?xml version="1.0" ?><!DOCTYPE svg  PUBLIC '-//W3C//DTD SVG 1.1//EN'  'http://www.w3.org/Graphics/SVG/1.1/DTD/svg11.dtd'><svg enable-background="new 0 0 512 512" height="512px" id="Layer_1" version="1.1" viewBox="0 0 512 512" width="512px" xml:space="preserve" xmlns="http://www.w3.org/2000/svg" xmlns:xlink="http://www.w3.org/1999/xlink"><path d="M512,432c0,44.184-35.816,80-80,80H80c-44.183,0-80-35.816-80-80V80C0,35.818,35.817,0,80,0h352  c44.184,0,80,35.817,80,80V432z" fill="#E2E2E2"/><path d="M512,432V311.813L404.604,204.417l-97.029,97.03l-98.926-98.926L105.486,305.686L311.8,512H432  C476.184,512,512,476.184,512,432z" fill="#D3D3D3"/><g><path d="M231.949,256c0,40.309-32.671,72.977-72.976,72.977C118.671,328.977,86,296.309,86,256   c0-40.302,32.671-72.975,72.973-72.975C199.277,183.024,231.949,215.698,231.949,256z" fill="#0063DB"/><path d="M426,256c0,40.309-32.672,72.977-72.977,72.977S280.047,296.309,280.047,256   c0-40.302,32.672-72.975,72.977-72.975S426,215.698,426,256z" fill="#FF0084"/></g></svg>