<?xml version="1.0" ?><!DOCTYPE svg  PUBLIC '-//W3C//DTD SVG 1.1//EN'  'http://www.w3.org/Graphics/SVG/1.1/DTD/svg11.dtd'><svg enable-background="new 0 0 50 50" id="Layer_1" version="1.1" viewBox="0 0 50 50" xml:space="preserve" xmlns="http://www.w3.org/2000/svg" xmlns:xlink="http://www.w3.org/1999/xlink"><path d="M45,1H5C2.8,1,1,2.8,1,5v40c0,2.2,1.8,4,4,4h40c2.2,0,4-1.8,4-4V5C49,2.8,47.2,1,45,1z" fill="#20B9EB"/><path d="M10.9,20c0,0,3-3,4,0c1,4,3.2,11.5,5,15c1,2,3,3,5,3s3.9-1.1,5-2c2.8-2.3,8.3-7.6,10-17  c1.7-9.4-11.6-8.2-13,0c3.4-2.1,5,1,4,4s-3,6-4,6c-0.8,0-2-2.2-3-6c-0.9-3.6-2-11-5-11s-4,1-4,1c-2.8,2.3-5,6-5,6L10.9,20z" fill="#FFFFFF" id="v_1_"/></svg>