<?xml version="1.0" encoding="UTF-8"?>
<!-- Generator: Adobe Illustrator 21.1.0, SVG Export Plug-In . SVG Version: 6.00 Build 0)  -->
<svg version="1.1" id="Group_1_1_" xmlns="http://www.w3.org/2000/svg" xmlns:xlink="http://www.w3.org/1999/xlink" x="0px" y="0px" viewBox="0 0 480 480" style="enable-background:new 0 0 480 480;" xml:space="preserve">
<style type="text/css">
	.st0{fill:#FFFFFF;}
	.st1{fill:#7B1606;}
	.st2{fill:#EEAF00;}
</style>
<g id="Rectangle_2_copy">
	<g>
		<rect x="73.1" y="72.7" transform="matrix(0.7071 -0.7071 0.7071 0.7071 -99.2172 240.0807)" width="334.2" height="334.2"/>
	</g>
</g>
<g id="Rectangle_2">
	<g>
		
			<rect x="75.8" y="75.4" transform="matrix(0.7071 -0.7071 0.7071 0.7071 -99.2173 240.081)" class="st0" width="328.7" height="328.7"/>
	</g>
</g>
<g id="Rectangle_1">
	<g>
		<polygon class="st1" points="239.8,82.5 82.2,240.2 397.5,240.2   "/>
	</g>
</g>
<g id="Rectangle_1_copy">
	<g>
		<polygon class="st2" points="82.2,240.2 239.8,397.8 397.5,240.2   "/>
	</g>
</g>
<g id="de_wit">
	<g>
		<path class="st2" d="M189.9,197.7c-1.3-1.6-2.9-2.9-4.9-3.8c-2-0.9-4.3-1.3-7-1.3h-10.6v37.7H178c2.7,0,5-0.4,7-1.3    c2-0.9,3.6-2.1,4.9-3.8c1.3-1.6,2.2-3.6,2.8-5.9c0.6-2.3,0.9-4.9,0.9-7.7c0-2.9-0.3-5.5-0.9-7.8    C192.1,201.4,191.1,199.4,189.9,197.7z M183.1,219.9c-1.3,1.9-3,2.9-5,2.9H176V200h2.1c2.1,0,3.7,1,5,2.9c1.3,1.9,1.9,4.8,1.9,8.6    C185.1,215.2,184.4,218,183.1,219.9z M206.9,214.5h9.3v-7h-9.3v-7.4H217v-7.5h-18.2v37.7h18.8v-7.7h-10.7V214.5z M259.3,218.8    h-0.2l-4.3-26.2h-8.2l-4.1,26.2h-0.2l-3.9-26.2h-8.7l7.1,37.7h9l4.6-25.3h0.1l4.6,25.3h9l7.1-37.7h-8.2L259.3,218.8z M275.1,230.3    h8.6v-37.7h-8.6V230.3z M287,192.6v7.2h6.9v30.4h8.4v-30.4h6.9v-7.2H287z"/>
	</g>
</g>
<g id="hekwerken">
	<g>
		<path class="st1" d="M145.8,260.3h-7.4v-12h-7.1v31.6h7.1v-13.2h7.4v13.2h7.1v-31.6h-7.1V260.3z M165.4,266.7h7.8v-5.9h-7.8v-6.2    h8.4v-6.3h-15.3v31.6h15.8v-6.4h-9V266.7z M200.4,248.3h-8l-6.5,13.2h-0.1v-13.2h-7.2v31.6h7.2v-14.7h0.1l6.7,14.7h8.3l-8.6-17.2    L200.4,248.3z M225.8,270.3h-0.1l-3.6-22h-6.9l-3.4,22h-0.2l-3.3-22H201l5.9,31.6h7.6l3.8-21.2h0.1l3.9,21.2h7.6l6-31.6H229    L225.8,270.3z M246,266.7h7.8v-5.9H246v-6.2h8.4v-6.3h-15.3v31.6H255v-6.4h-9V266.7z M276.1,264.9c0.5-0.4,1-1,1.4-1.6    c0.4-0.7,0.8-1.4,1-2.4c0.3-0.9,0.4-2,0.4-3.1c0-3.2-0.8-5.5-2.5-7.1c-1.7-1.6-4.1-2.4-7.1-2.4h-10.1v31.6h6.9v-12.6h2.1l4.2,12.6    h7.5l-5.4-14.1C275,265.6,275.5,265.3,276.1,264.9z M270.8,261.3c-0.8,0.6-1.6,1-2.7,1H266v-8h2.2c0.4,0,0.8,0.1,1.3,0.2    c0.4,0.1,0.8,0.3,1.2,0.6c0.4,0.3,0.6,0.7,0.9,1.2c0.2,0.5,0.3,1.2,0.3,2C271.9,259.6,271.6,260.7,270.8,261.3z M305.2,248.3h-8    l-6.5,13.2h-0.1v-13.2h-7.2v31.6h7.2v-14.7h0.1l6.7,14.7h8.3l-8.6-17.2L305.2,248.3z M315.5,266.7h7.8v-5.9h-7.8v-6.2h8.4v-6.3    h-15.3v31.6h15.8v-6.4h-9V266.7z M343.9,248.3l0.1,19.5h-0.1l-7.3-19.5h-7.9v31.6h6.4l-0.2-19.3h0.1l7.3,19.3h7.6v-31.6H343.9z"/>
	</g>
</g>
<g id="www.dewithekwerk.nl">
	<g>
		<path d="M63,216.2l4.1,7.6l0,0l-7.6-4.1l-2.2,2.2l4.1,7.6l0,0l-7.5-4.1l-2.2,2.2l11,5.3l2.1-2.1l-3.9-7.5l0,0l7.6,3.9l2.1-2.1    l-5.3-11L63,216.2z M76.7,202.6l4.1,7.6l0,0l-7.6-4.1l-2.2,2.2l4.1,7.6l0,0l-7.5-4.1l-2.2,2.2l11,5.3l2.1-2.1l-3.9-7.5l0,0    l7.6,3.9l2.1-2.1l-5.3-11L76.7,202.6z M90.3,188.9l4.1,7.6l0,0l-7.6-4.1l-2.2,2.2l4.1,7.6l0,0l-7.5-4.1l-2.2,2.2l11,5.3l2.1-2.1    l-3.9-7.5l0,0l7.6,3.9l2.1-2.1l-5.3-11L90.3,188.9z M101.1,190.2c-0.5,0-1,0.2-1.3,0.6c-0.4,0.4-0.6,0.8-0.6,1.4    c0,0.5,0.2,1,0.5,1.3c0.2,0.2,0.4,0.3,0.6,0.4c0.2,0.1,0.5,0.1,0.7,0.1c0.2,0,0.5-0.1,0.7-0.2c0.2-0.1,0.4-0.2,0.6-0.4    c0.4-0.4,0.6-0.8,0.6-1.4c0-0.5-0.2-1-0.5-1.3C102.1,190.3,101.6,190.2,101.1,190.2z M99.1,170.7l5.7,5.7l-0.1,0.1    c-0.2,0-0.5,0-0.8,0c-0.3,0-0.6,0.1-1,0.2c-0.3,0.1-0.7,0.2-1.1,0.5c-0.4,0.2-0.8,0.5-1.1,0.9c-0.6,0.6-1,1.2-1.3,1.9    c-0.3,0.7-0.4,1.4-0.3,2.2c0,0.7,0.2,1.5,0.5,2.2c0.3,0.7,0.8,1.4,1.4,2c0.6,0.6,1.3,1.1,2,1.4c0.7,0.3,1.4,0.5,2.2,0.6    c0.7,0,1.5-0.1,2.2-0.3c0.7-0.3,1.4-0.7,2-1.3c0.6-0.6,1-1.2,1.2-2c0.3-0.8,0.3-1.5,0.1-2.3l0,0l1.2,1.2l1.9-1.9l-12.8-12.8    L99.1,170.7z M106.8,178.6c0.4,0.2,0.8,0.5,1.1,0.8c0.3,0.3,0.6,0.7,0.8,1.1c0.2,0.4,0.3,0.9,0.4,1.3c0,0.5,0,0.9-0.2,1.4    c-0.1,0.4-0.4,0.9-0.8,1.2c-0.4,0.4-0.8,0.7-1.3,0.8c-0.5,0.1-0.9,0.2-1.3,0.1c-0.4-0.1-0.9-0.2-1.3-0.4c-0.4-0.2-0.8-0.5-1.1-0.8    c-0.3-0.3-0.6-0.7-0.8-1.1c-0.2-0.4-0.4-0.8-0.4-1.3c-0.1-0.4,0-0.9,0.1-1.3c0.1-0.4,0.4-0.9,0.8-1.3c0.4-0.4,0.8-0.6,1.2-0.8    c0.5-0.1,0.9-0.2,1.4-0.1C106,178.3,106.4,178.4,106.8,178.6z M120.1,170.5c0.1,0.6,0.1,1.1-0.1,1.6c-0.2,0.5-0.5,1.1-1,1.6    c-0.3,0.3-0.6,0.5-1,0.7c-0.4,0.2-0.8,0.3-1.1,0.3c-0.4,0-0.8,0-1.1-0.1c-0.4-0.1-0.7-0.3-1-0.6l6.2-6.2c-0.1-0.1-0.2-0.2-0.3-0.3    c-0.1-0.1-0.2-0.2-0.3-0.3c-0.7-0.7-1.5-1.3-2.2-1.6c-0.7-0.4-1.5-0.5-2.2-0.6c-0.7,0-1.4,0.1-2.1,0.4c-0.7,0.3-1.3,0.7-1.9,1.3    c-0.6,0.6-1.1,1.3-1.4,2c-0.3,0.7-0.5,1.5-0.5,2.3c0,0.8,0.2,1.5,0.5,2.3c0.3,0.8,0.8,1.5,1.5,2.1c0.7,0.7,1.4,1.2,2.1,1.5    c0.7,0.3,1.5,0.4,2.3,0.4c0.8,0,1.5-0.2,2.2-0.5c0.7-0.3,1.4-0.8,2-1.5c1.5-1.5,2.2-3.2,1.9-5.1L120.1,170.5z M113.2,172.6    c-0.5-0.6-0.8-1.3-0.7-2.1c0.1-0.8,0.4-1.5,1-2.1c0.3-0.3,0.7-0.6,1-0.7c0.4-0.1,0.7-0.2,1-0.2c0.3,0,0.7,0.1,1,0.3    c0.3,0.2,0.6,0.4,0.9,0.6L113.2,172.6z M128.3,150.9l4.1,7.6l0,0l-7.6-4.1l-2.2,2.2l4.1,7.6l0,0l-7.5-4.1l-2.2,2.2l11,5.3l2.1-2.1    l-3.9-7.5l0,0l7.6,3.9l2.1-2.1l-5.3-11L128.3,150.9z M131.8,147.5l8.2,8.2l2-2l-8.2-8.2L131.8,147.5z M129.9,145.5    c0.5,0,0.9-0.2,1.3-0.6c0.4-0.4,0.6-0.8,0.6-1.3c0-0.5-0.1-0.9-0.5-1.3c-0.4-0.4-0.8-0.5-1.3-0.5c-0.5,0-0.9,0.2-1.3,0.6    c-0.4,0.4-0.6,0.8-0.6,1.3c0,0.5,0.2,0.9,0.5,1.2C129.1,145.3,129.5,145.5,129.9,145.5z M146.7,145.8c-0.1,0.2-0.3,0.3-0.4,0.5    c-0.5,0.5-0.9,0.6-1.2,0.5c-0.4-0.1-0.7-0.3-1.1-0.7l-3.8-3.8l2-2l-1.6-1.6l-2,2l-2.4-2.4l-2,2l2.4,2.4l-1.4,1.4l1.6,1.6l1.4-1.4    l3.8,3.8c0.4,0.4,0.8,0.7,1.2,1c0.4,0.3,0.9,0.4,1.3,0.5c0.5,0.1,0.9,0,1.4-0.2c0.5-0.2,1-0.6,1.6-1.1c0.2-0.2,0.4-0.5,0.7-0.8    c0.2-0.3,0.4-0.6,0.5-0.8l-1.7-1.5C146.9,145.4,146.8,145.6,146.7,145.8z M151.3,131.6c-0.5-0.3-1-0.5-1.6-0.5    c-0.5-0.1-1.1,0-1.7,0.2c-0.6,0.2-1.1,0.6-1.6,1.1c-0.3,0.3-0.5,0.6-0.7,1c-0.2,0.3-0.3,0.7-0.4,1c-0.1,0.3-0.1,0.7-0.1,1    c0,0.3,0.1,0.6,0.2,0.8l0,0l-5.8-5.8l-2,2l12.8,12.8l2-2l-4.5-4.5c-0.3-0.3-0.5-0.6-0.7-0.9c-0.2-0.3-0.3-0.7-0.3-1.1    c-0.1-0.4,0-0.7,0.1-1.1c0.1-0.4,0.3-0.7,0.7-1c0.3-0.3,0.7-0.5,1-0.6c0.3-0.1,0.7,0,1,0.1c0.3,0.1,0.6,0.3,0.9,0.5    c0.3,0.2,0.6,0.5,0.8,0.7l4.5,4.5l2-2l-5.1-5.1C152.3,132.3,151.8,131.9,151.3,131.6z M163.7,126.9c0.1,0.6,0.1,1.1-0.1,1.6    c-0.2,0.5-0.5,1.1-1,1.6c-0.3,0.3-0.6,0.5-1,0.7c-0.4,0.2-0.8,0.3-1.1,0.3c-0.4,0-0.8,0-1.1-0.1c-0.4-0.1-0.7-0.3-1-0.6l6.2-6.2    c-0.1-0.1-0.2-0.2-0.3-0.3l-0.3-0.3c-0.7-0.7-1.5-1.3-2.2-1.6c-0.7-0.4-1.5-0.5-2.2-0.6c-0.7,0-1.4,0.1-2.1,0.4    c-0.7,0.3-1.3,0.7-1.9,1.3c-0.6,0.6-1.1,1.3-1.4,2c-0.3,0.7-0.5,1.5-0.5,2.3c0,0.8,0.1,1.5,0.5,2.3c0.3,0.8,0.8,1.5,1.5,2.1    c0.7,0.7,1.4,1.2,2.1,1.5c0.7,0.3,1.5,0.4,2.3,0.4c0.8,0,1.5-0.2,2.2-0.5c0.7-0.3,1.4-0.8,2-1.5c1.5-1.5,2.2-3.2,1.9-5.1    L163.7,126.9z M156.8,128.9c-0.5-0.6-0.8-1.3-0.7-2.1c0.1-0.8,0.4-1.5,1-2.1c0.3-0.3,0.7-0.6,1-0.7c0.4-0.1,0.7-0.2,1-0.2    c0.3,0,0.7,0.1,1,0.3c0.3,0.2,0.6,0.4,0.9,0.6L156.8,128.9z M169.6,109.7l-2.6,2.6l0.3,6.5l-0.1,0.1l-8.1-8.1l-2,2l12.8,12.8l2-2    l-4.2-4.2l0.1-0.1l7.4,1l2.7-2.7l-8.2-0.7L169.6,109.7z M181.2,98l4.1,7.6l0,0l-7.6-4.1l-2.2,2.2l4.1,7.6l0,0l-7.5-4.1l-2.2,2.2    l11,5.3l2.1-2.1l-3.9-7.5l0,0l7.6,3.9l2.1-2.1l-5.3-11L181.2,98z M196.4,94.2c0.1,0.6,0.1,1.1-0.1,1.6c-0.2,0.5-0.5,1.1-1,1.6    c-0.3,0.3-0.6,0.5-1,0.7c-0.4,0.2-0.8,0.3-1.1,0.3c-0.4,0-0.8,0-1.1-0.1c-0.4-0.1-0.7-0.3-1-0.6l6.2-6.2c-0.1-0.1-0.2-0.2-0.3-0.3    c-0.1-0.1-0.2-0.2-0.3-0.3c-0.7-0.7-1.5-1.3-2.2-1.6c-0.7-0.4-1.5-0.5-2.2-0.6c-0.7,0-1.4,0.1-2.1,0.4c-0.7,0.3-1.3,0.7-1.9,1.3    c-0.6,0.6-1.1,1.3-1.4,2c-0.3,0.7-0.5,1.5-0.5,2.3c0,0.8,0.2,1.5,0.5,2.3c0.3,0.8,0.8,1.5,1.5,2.1c0.7,0.7,1.4,1.2,2.1,1.5    c0.7,0.3,1.5,0.4,2.3,0.4c0.8,0,1.5-0.2,2.2-0.5c0.7-0.3,1.4-0.8,2-1.5c1.5-1.5,2.2-3.2,1.9-5.1L196.4,94.2z M189.5,96.3    c-0.5-0.6-0.8-1.3-0.7-2.1c0.1-0.8,0.4-1.5,1-2.1c0.3-0.3,0.7-0.6,1-0.7c0.4-0.1,0.7-0.2,1-0.2c0.3,0,0.7,0.1,1,0.3    c0.3,0.2,0.6,0.4,0.9,0.6L189.5,96.3z M199.7,85.9c-0.2-0.3-0.3-0.7-0.4-1.1c-0.1-0.4-0.1-0.8,0.1-1.3c0.1-0.5,0.4-0.9,0.9-1.4    c0.1-0.1,0.2-0.2,0.3-0.3c0.1-0.1,0.2-0.2,0.4-0.3l-1.9-1.9c-0.1,0-0.2,0.1-0.3,0.2c-0.1,0.1-0.2,0.2-0.3,0.2    c-0.5,0.5-0.9,1.2-1,1.9c-0.1,0.7,0,1.4,0.2,2.1l0,0l-1.4-1.4l-2,2l8.2,8.2l2-2l-4.4-4.4C200.1,86.5,199.9,86.2,199.7,85.9z     M208.4,70.8l-2.6,2.6l0.3,6.5l-0.1,0.1l-8.1-8.1l-2,2l12.8,12.8l2-2l-4.2-4.2l0.1-0.1l7.4,1l2.7-2.7l-8.2-0.7L208.4,70.8z     M217.8,73.5c-0.5,0-1,0.2-1.3,0.6c-0.4,0.4-0.6,0.8-0.6,1.4c0,0.5,0.2,1,0.5,1.3c0.2,0.2,0.4,0.3,0.6,0.4    c0.2,0.1,0.5,0.1,0.7,0.1c0.2,0,0.5-0.1,0.7-0.2c0.2-0.1,0.4-0.2,0.6-0.4c0.4-0.4,0.6-0.8,0.6-1.4c0-0.5-0.2-1-0.5-1.3    C218.7,73.7,218.3,73.5,217.8,73.5z M223.4,59.5c-0.5-0.3-1-0.5-1.6-0.5c-0.5-0.1-1.1,0-1.7,0.2c-0.6,0.2-1.1,0.6-1.6,1.1    c-0.6,0.6-1,1.3-1.1,2.1c-0.1,0.8-0.1,1.4,0.1,2l0,0l-1.3-1.3l-1.9,1.9l8.2,8.2l2-2l-4.5-4.5c-0.3-0.3-0.5-0.6-0.7-0.9    c-0.2-0.3-0.3-0.7-0.4-1.1c-0.1-0.4,0-0.7,0.1-1.1c0.1-0.4,0.3-0.7,0.7-1c0.3-0.3,0.7-0.5,1-0.6c0.3-0.1,0.7,0,1,0.1    c0.3,0.1,0.6,0.3,0.9,0.5c0.3,0.2,0.6,0.5,0.8,0.7l4.5,4.5l2-2l-5.1-5.1C224.4,60.1,223.9,59.8,223.4,59.5z M221.5,48.4l-2,2    l12.8,12.8l2-2L221.5,48.4z"/>
	</g>
</g>
<g id="Eigen_showtuin">
	<g>
		<path d="M86.5,280.1l5.5,5.5l1.8-1.8l-5.5-5.5l3.1-3.1l5.8,5.8l1.9-1.9l-8-8l-12,12l8.3,8.3l1.9-1.9l-6.1-6.1L86.5,280.1z     M101.3,285.4c0.5,0,0.9-0.1,1.3-0.5c0.4-0.4,0.5-0.8,0.5-1.3c0-0.5-0.2-0.9-0.6-1.3c-0.4-0.4-0.8-0.6-1.3-0.6s-0.9,0.2-1.2,0.5    c-0.3,0.3-0.5,0.7-0.5,1.2c0,0.5,0.2,0.9,0.6,1.3C100.4,285.2,100.8,285.4,101.3,285.4z M99.5,287.4l-2-2l-8.2,8.2l2,2L99.5,287.4    z M108.4,296.2l-1.2,1.2l0,0c0.2-0.8,0.2-1.6-0.1-2.3c-0.3-0.7-0.7-1.4-1.3-2c-0.6-0.6-1.3-1.1-2-1.3c-0.7-0.3-1.4-0.4-2.2-0.3    c-0.7,0-1.5,0.2-2.2,0.6c-0.7,0.3-1.4,0.8-1.9,1.4c-0.6,0.6-1,1.2-1.4,1.9c-0.3,0.7-0.5,1.4-0.5,2.2c0,0.7,0.1,1.5,0.3,2.2    c0.3,0.7,0.7,1.4,1.3,2c0.6,0.6,1.2,1,1.9,1.2c0.7,0.2,1.4,0.3,2,0.2l0,0l-0.6,0.6c-0.4,0.4-0.8,0.7-1.3,1    c-0.4,0.3-0.9,0.4-1.3,0.5c-0.4,0.1-0.9,0-1.4-0.2c-0.5-0.2-1-0.5-1.4-1c-0.5-0.5-0.9-1.1-1.2-1.8c-0.3-0.7-0.5-1.4-0.5-2.2    l-2.8,0.4c0,0.5,0.1,1,0.3,1.5c0.2,0.5,0.4,1,0.6,1.5c0.2,0.5,0.5,0.9,0.8,1.3c0.3,0.4,0.6,0.8,1,1.1c0.8,0.8,1.6,1.4,2.4,1.7    c0.8,0.4,1.6,0.5,2.4,0.5c0.8,0,1.6-0.3,2.4-0.7c0.8-0.4,1.5-1,2.3-1.7l7.4-7.4L108.4,296.2z M105.2,299.1    c-0.2,0.4-0.5,0.8-0.8,1.2c-0.3,0.3-0.7,0.6-1.1,0.8c-0.4,0.2-0.9,0.3-1.3,0.3c-0.4,0-0.9,0-1.3-0.2c-0.4-0.2-0.8-0.4-1.2-0.8    c-0.4-0.4-0.6-0.8-0.8-1.2c-0.1-0.4-0.2-0.9-0.1-1.3c0-0.4,0.2-0.9,0.4-1.3c0.2-0.4,0.5-0.8,0.8-1.1c0.4-0.4,0.8-0.6,1.2-0.9    c0.4-0.2,0.9-0.3,1.3-0.4c0.4,0,0.9,0,1.3,0.2c0.4,0.2,0.8,0.4,1.2,0.8c0.4,0.4,0.6,0.8,0.8,1.2c0.2,0.4,0.2,0.9,0.2,1.3    C105.5,298.2,105.4,298.7,105.2,299.1z M111.5,312.3c-0.5-0.2-1.1-0.5-1.6-1c-0.3-0.3-0.5-0.6-0.7-1c-0.2-0.4-0.3-0.8-0.3-1.1    c0-0.4,0-0.8,0.1-1.1c0.1-0.4,0.3-0.7,0.6-1l6.2,6.2c0.1-0.1,0.2-0.2,0.3-0.3c0.1-0.1,0.2-0.2,0.3-0.3c0.7-0.7,1.3-1.5,1.6-2.2    c0.4-0.7,0.5-1.5,0.6-2.2c0-0.7-0.1-1.4-0.4-2.1c-0.3-0.7-0.7-1.3-1.3-1.9c-0.6-0.6-1.3-1.1-2-1.4c-0.7-0.3-1.5-0.5-2.3-0.5    c-0.8,0-1.5,0.2-2.3,0.5c-0.8,0.3-1.5,0.8-2.1,1.5c-0.7,0.7-1.2,1.4-1.5,2.1c-0.3,0.7-0.4,1.5-0.4,2.3c0,0.8,0.2,1.5,0.5,2.2    c0.3,0.7,0.8,1.4,1.5,2c1.5,1.5,3.2,2.2,5.1,1.9l-0.3-2.4C112.6,312.4,112,312.4,111.5,312.3z M113.2,304.7c0.8,0.1,1.5,0.4,2.1,1    c0.3,0.3,0.6,0.7,0.7,1c0.1,0.4,0.2,0.7,0.2,1c0,0.3-0.1,0.7-0.3,1c-0.2,0.3-0.4,0.6-0.6,0.9l-4.2-4.2    C111.7,304.9,112.4,304.7,113.2,304.7z M127.2,314.6c-0.6-0.6-1.3-1-2.1-1.1c-0.8-0.1-1.4-0.1-2,0.1l0,0l1.3-1.3l-1.9-1.9    l-8.2,8.2l2,2l4.5-4.5c0.3-0.3,0.6-0.5,0.9-0.7c0.3-0.2,0.7-0.3,1.1-0.4c0.4-0.1,0.7,0,1.1,0.1c0.4,0.1,0.7,0.3,1,0.7    c0.3,0.3,0.5,0.7,0.6,1c0.1,0.3,0,0.7-0.1,1c-0.1,0.3-0.3,0.6-0.5,0.9c-0.2,0.3-0.5,0.6-0.7,0.8l-4.5,4.5l2,2l5.1-5.1    c0.4-0.4,0.8-0.9,1.1-1.4c0.3-0.5,0.5-1,0.5-1.6c0.1-0.5,0-1.1-0.2-1.7S127.8,315.2,127.2,314.6z M137.5,334.7    c0.1-0.4,0.1-0.9,0.1-1.3c-0.1-0.4-0.2-0.9-0.4-1.3c-0.2-0.4-0.4-0.8-0.7-1.2c-0.4-0.7-0.7-1.3-0.9-1.7c-0.2-0.4-0.1-0.8,0.2-1.1    c0.3-0.3,0.7-0.4,1.1-0.3c0.4,0.1,0.8,0.4,1.1,0.7c0.4,0.4,0.6,0.8,0.8,1.3c0.1,0.5,0.2,0.9,0.1,1.4l2.5,0.2    c0.1-0.7,0-1.5-0.4-2.3c-0.4-0.8-0.8-1.4-1.4-2c-0.4-0.4-0.9-0.8-1.3-1c-0.5-0.3-1-0.5-1.5-0.6c-0.5-0.1-1-0.1-1.5,0.1    c-0.5,0.1-1,0.4-1.5,0.9c-0.4,0.4-0.6,0.8-0.8,1.2c-0.1,0.4-0.2,0.8-0.1,1.2c0.1,0.4,0.2,0.8,0.3,1.2c0.2,0.4,0.4,0.8,0.6,1.2    c0.5,0.8,0.8,1.4,1,1.8c0.2,0.5,0.1,0.9-0.3,1.2c-0.2,0.2-0.4,0.3-0.6,0.3c-0.2,0-0.4,0-0.6,0c-0.2-0.1-0.4-0.1-0.6-0.3    c-0.2-0.1-0.4-0.3-0.5-0.4c-0.4-0.4-0.7-0.9-0.9-1.5c-0.2-0.6-0.2-1.1-0.2-1.6l-2.6-0.1c0,0.8,0.1,1.7,0.5,2.5    c0.4,0.8,0.9,1.6,1.5,2.2c0.4,0.4,0.9,0.8,1.4,1.1c0.5,0.3,1,0.5,1.6,0.6c0.5,0.1,1.1,0.1,1.6-0.1c0.5-0.2,1-0.5,1.5-1    C137.1,335.6,137.4,335.1,137.5,334.7z M149.7,341.3c0.3-0.5,0.5-1,0.5-1.6c0.1-0.5,0-1.1-0.2-1.7c-0.2-0.6-0.6-1.1-1.1-1.6    c-0.3-0.3-0.6-0.5-1-0.7c-0.3-0.2-0.7-0.3-1-0.4c-0.3-0.1-0.7-0.1-1-0.1c-0.3,0-0.6,0.1-0.8,0.2l0,0l5.8-5.8l-2-2l-12.8,12.8l2,2    l4.5-4.5c0.3-0.3,0.6-0.5,0.9-0.7c0.3-0.2,0.7-0.3,1.1-0.3c0.4-0.1,0.7,0,1.1,0.1c0.4,0.1,0.7,0.3,1,0.7c0.3,0.3,0.5,0.7,0.6,1    c0.1,0.3,0,0.7-0.1,1c-0.1,0.3-0.3,0.6-0.5,0.9c-0.2,0.3-0.5,0.6-0.7,0.8l-4.5,4.5l2,2l5.1-5.1    C149.1,342.2,149.4,341.8,149.7,341.3z M159.9,352.3c0.3-0.8,0.4-1.5,0.4-2.3c0-0.8-0.2-1.5-0.5-2.3c-0.3-0.7-0.8-1.4-1.4-2    c-0.6-0.6-1.3-1.1-2-1.4c-0.7-0.3-1.5-0.5-2.3-0.5c-0.8,0-1.5,0.1-2.3,0.4c-0.8,0.3-1.5,0.8-2.1,1.4c-0.6,0.6-1.1,1.4-1.4,2.1    c-0.3,0.8-0.4,1.5-0.4,2.3c0,0.8,0.2,1.5,0.5,2.3c0.3,0.8,0.8,1.4,1.4,2.1c0.6,0.6,1.3,1.1,2.1,1.4c0.8,0.3,1.5,0.5,2.3,0.5    c0.8,0,1.5-0.1,2.3-0.4c0.8-0.3,1.5-0.8,2.1-1.4C159.1,353.8,159.6,353.1,159.9,352.3z M157.6,350c-0.1,0.4-0.2,0.9-0.4,1.3    c-0.2,0.4-0.5,0.8-0.8,1.1c-0.3,0.3-0.7,0.6-1.1,0.8c-0.4,0.2-0.8,0.4-1.3,0.4c-0.4,0.1-0.9,0-1.3-0.1c-0.5-0.1-0.9-0.4-1.3-0.8    c-0.4-0.4-0.7-0.8-0.8-1.3c-0.1-0.5-0.2-0.9-0.1-1.3c0.1-0.4,0.2-0.9,0.4-1.3c0.2-0.4,0.5-0.8,0.8-1.1c0.3-0.3,0.7-0.6,1.1-0.8    c0.4-0.2,0.8-0.4,1.3-0.4c0.4-0.1,0.9,0,1.3,0.1c0.4,0.1,0.9,0.4,1.3,0.8c0.4,0.4,0.7,0.8,0.8,1.3    C157.6,349.1,157.6,349.5,157.6,350z M174.7,362.6l-7.6,4.1l0,0l4.1-7.6l-2.2-2.2l-7.6,4.1l0,0l4.1-7.5l-2.2-2.2l-5.3,11l2.1,2.1    l7.5-3.9l0,0l-3.9,7.6l2.1,2.1l11-5.3L174.7,362.6z M174.8,376c-0.5-0.5-0.6-0.9-0.5-1.2c0.1-0.4,0.3-0.7,0.7-1.1l3.8-3.8l2,2    l1.6-1.6l-2-2l2.4-2.4l-2-2l-2.4,2.4l-1.4-1.4l-1.6,1.6l1.4,1.4l-3.8,3.8c-0.4,0.4-0.7,0.8-1,1.2c-0.3,0.4-0.4,0.9-0.5,1.3    c-0.1,0.5,0,0.9,0.2,1.4c0.2,0.5,0.6,1,1.1,1.6c0.2,0.2,0.5,0.4,0.8,0.7c0.3,0.2,0.6,0.4,0.8,0.5l1.5-1.7    c-0.2-0.1-0.4-0.2-0.6-0.3C175.1,376.3,174.9,376.1,174.8,376z M189.3,377.2l-4.5,4.5c-0.3,0.3-0.6,0.5-0.9,0.7    c-0.3,0.2-0.7,0.3-1.1,0.4c-0.4,0.1-0.7,0-1.1-0.1c-0.4-0.1-0.7-0.3-1-0.6c-0.3-0.3-0.5-0.7-0.6-1c-0.1-0.3,0-0.7,0.1-1    c0.1-0.3,0.3-0.6,0.5-0.9c0.2-0.3,0.5-0.6,0.7-0.8l4.5-4.5l-2-2l-5.1,5.1c-0.4,0.4-0.8,0.9-1.1,1.4c-0.3,0.5-0.5,1-0.5,1.6    c-0.1,0.5,0,1.1,0.2,1.7c0.2,0.6,0.6,1.1,1.1,1.6c0.6,0.6,1.3,1,2.1,1.1c0.8,0.1,1.4,0.1,2-0.1l0,0l-1.3,1.3l1.9,1.9l8.2-8.2    L189.3,377.2z M193.8,381.7l-8.2,8.2l2,2l8.2-8.2L193.8,381.7z M197.7,381.8c0.5,0,0.9-0.1,1.3-0.5c0.4-0.4,0.5-0.8,0.5-1.3    c0-0.5-0.2-0.9-0.6-1.3c-0.4-0.4-0.8-0.6-1.3-0.6c-0.5,0-0.9,0.2-1.2,0.5c-0.3,0.3-0.5,0.7-0.5,1.2c0,0.5,0.2,0.9,0.6,1.3    C196.8,381.5,197.2,381.7,197.7,381.8z M204.2,392.1c-0.2-0.6-0.6-1.1-1.1-1.6c-0.6-0.6-1.3-1-2.1-1.1c-0.8-0.1-1.4-0.1-2,0.1l0,0    l1.3-1.3l-1.9-1.9l-8.2,8.2l2,2l4.5-4.5c0.3-0.3,0.6-0.5,0.9-0.7c0.3-0.2,0.7-0.3,1.1-0.4c0.4-0.1,0.7,0,1.1,0.1    c0.4,0.1,0.7,0.3,1,0.7c0.3,0.3,0.5,0.7,0.6,1c0.1,0.3,0,0.7-0.1,1c-0.1,0.3-0.3,0.6-0.5,0.9c-0.2,0.3-0.5,0.6-0.7,0.8l-4.5,4.5    l2,2l5.1-5.1c0.4-0.4,0.8-0.9,1.1-1.4c0.3-0.5,0.5-1,0.5-1.6C204.4,393.3,204.4,392.7,204.2,392.1z"/>
	</g>
</g>
<g id="Dodewaard">
	<g>
		<path d="M302,371.1c-1.1-1.1-2.3-1.9-3.4-2.3c-1.2-0.4-2.3-0.5-3.4-0.3c-1.1,0.2-2.2,0.5-3.2,1.1c-1,0.6-1.9,1.3-2.7,2.1l-4.3,4.3    l12,12l4.3-4.3c0.8-0.8,1.5-1.7,2-2.7c0.6-1,0.9-2.1,1.1-3.2c0.1-1.1,0-2.3-0.3-3.4C303.8,373.3,303,372.2,302,371.1z     M301.5,378.2c-0.1,0.8-0.4,1.5-0.8,2.2c-0.4,0.7-0.9,1.3-1.5,1.9l-1.8,1.8l-8.3-8.3l1.8-1.8c0.6-0.6,1.2-1.1,1.8-1.5    c0.7-0.4,1.4-0.7,2.1-0.9c0.8-0.1,1.5-0.1,2.4,0.2c0.8,0.3,1.7,0.8,2.5,1.7c0.8,0.8,1.3,1.6,1.6,2.4    C301.5,376.7,301.6,377.5,301.5,378.2z M314.3,362.6c-0.6-0.6-1.3-1.1-2.1-1.4c-0.8-0.3-1.5-0.4-2.3-0.4c-0.8,0-1.5,0.2-2.3,0.5    c-0.7,0.3-1.4,0.8-2,1.4c-0.6,0.6-1.1,1.3-1.4,2c-0.3,0.7-0.5,1.5-0.5,2.3c0,0.8,0.1,1.5,0.4,2.3c0.3,0.8,0.8,1.5,1.4,2.1    c0.6,0.6,1.4,1.1,2.1,1.4c0.8,0.3,1.5,0.4,2.3,0.4c0.8,0,1.5-0.2,2.3-0.5c0.8-0.3,1.4-0.8,2.1-1.4c0.6-0.6,1.1-1.3,1.4-2.1    c0.3-0.8,0.5-1.5,0.5-2.3c0-0.8-0.1-1.5-0.4-2.3C315.4,364,314.9,363.3,314.3,362.6z M313.3,368.4c-0.1,0.5-0.4,0.9-0.8,1.3    c-0.4,0.4-0.8,0.7-1.3,0.8c-0.5,0.1-0.9,0.2-1.3,0.1c-0.4-0.1-0.9-0.2-1.3-0.4c-0.4-0.2-0.8-0.5-1.1-0.8c-0.3-0.3-0.6-0.7-0.8-1.1    c-0.2-0.4-0.4-0.8-0.4-1.3c-0.1-0.4,0-0.9,0.1-1.3c0.1-0.4,0.4-0.9,0.8-1.3c0.4-0.4,0.8-0.7,1.3-0.8c0.4-0.1,0.9-0.2,1.3-0.1    c0.4,0.1,0.9,0.2,1.3,0.4c0.4,0.2,0.8,0.5,1.1,0.8c0.3,0.3,0.6,0.7,0.8,1.1c0.2,0.4,0.4,0.8,0.4,1.3    C313.5,367.5,313.4,368,313.3,368.4z M313.7,345.7l5.7,5.7l-0.1,0.1c-0.2,0-0.5,0-0.8,0c-0.3,0-0.6,0.1-1,0.2    c-0.3,0.1-0.7,0.2-1.1,0.5c-0.4,0.2-0.8,0.5-1.1,0.9c-0.6,0.6-1,1.2-1.3,1.9c-0.3,0.7-0.4,1.4-0.3,2.2c0,0.7,0.2,1.5,0.5,2.2    c0.3,0.7,0.8,1.4,1.4,2c0.6,0.6,1.3,1.1,2,1.4c0.7,0.3,1.4,0.5,2.2,0.6c0.7,0,1.5-0.1,2.2-0.3c0.7-0.3,1.4-0.7,2-1.3    c0.6-0.6,1-1.2,1.2-2c0.3-0.8,0.3-1.5,0.1-2.3l0,0l1.2,1.2l1.9-1.9l-12.8-12.8L313.7,345.7z M321.5,353.6c0.4,0.2,0.8,0.5,1.1,0.8    c0.3,0.3,0.6,0.7,0.8,1.1c0.2,0.4,0.3,0.9,0.4,1.3c0,0.5,0,0.9-0.2,1.4c-0.1,0.4-0.4,0.9-0.8,1.2c-0.4,0.4-0.8,0.7-1.3,0.8    c-0.5,0.1-0.9,0.2-1.3,0.1c-0.4-0.1-0.9-0.2-1.3-0.4c-0.4-0.2-0.8-0.5-1.1-0.8c-0.3-0.3-0.6-0.7-0.8-1.1c-0.2-0.4-0.4-0.8-0.4-1.3    c-0.1-0.4,0-0.9,0.1-1.3c0.1-0.4,0.4-0.9,0.8-1.3c0.4-0.4,0.8-0.6,1.2-0.8c0.5-0.1,0.9-0.2,1.4-0.1    C320.6,353.3,321,353.4,321.5,353.6z M334.7,345.5c0.1,0.6,0.1,1.1-0.1,1.6c-0.2,0.5-0.5,1.1-1,1.6c-0.3,0.3-0.6,0.5-1,0.7    c-0.4,0.2-0.8,0.3-1.1,0.3c-0.4,0-0.8,0-1.1-0.1c-0.4-0.1-0.7-0.3-1-0.6l6.2-6.2c-0.1-0.1-0.2-0.2-0.3-0.3    c-0.1-0.1-0.2-0.2-0.3-0.3c-0.7-0.7-1.5-1.3-2.2-1.6c-0.7-0.4-1.5-0.5-2.2-0.6c-0.7,0-1.4,0.1-2.1,0.4c-0.7,0.3-1.3,0.7-1.9,1.3    c-0.6,0.6-1.1,1.3-1.4,2c-0.3,0.7-0.5,1.5-0.5,2.3c0,0.8,0.2,1.5,0.5,2.3c0.3,0.8,0.8,1.5,1.5,2.1c0.7,0.7,1.4,1.2,2.1,1.5    c0.7,0.3,1.5,0.4,2.3,0.4c0.8,0,1.5-0.2,2.2-0.5c0.7-0.3,1.4-0.8,2-1.5c1.5-1.5,2.2-3.2,1.9-5.1L334.7,345.5z M327.8,347.6    c-0.5-0.6-0.8-1.3-0.7-2.1c0.1-0.8,0.4-1.5,1-2.1c0.3-0.3,0.7-0.6,1-0.7c0.4-0.1,0.7-0.2,1-0.2c0.3,0,0.7,0.1,1,0.3    c0.3,0.2,0.6,0.4,0.9,0.6L327.8,347.6z M343,325.9l4.1,7.6l0,0l-7.6-4.1l-2.2,2.2l4.1,7.6l0,0l-7.5-4.1l-2.2,2.2l11,5.3l2.1-2.1    l-3.9-7.5l0,0l7.6,3.9l2.1-2.1l-5.3-11L343,325.9z M355.1,317.6c-0.5-0.3-1.1-0.5-1.7-0.5c-0.6-0.1-1.2,0-1.9,0.3    c-0.7,0.3-1.4,0.8-2.1,1.5c-0.6,0.6-1.1,1.3-1.5,2.2c-0.4,0.8-0.6,1.7-0.6,2.6l2.3,0.2c0-0.5,0.1-1.1,0.3-1.6    c0.2-0.6,0.5-1.1,1-1.5c0.5-0.5,1.1-0.8,1.7-1c0.6-0.1,1.2,0.1,1.7,0.6l0.2,0.2c-0.6,0.6-1.3,1.3-1.9,2c-0.6,0.7-1.1,1.5-1.4,2.2    c-0.4,0.7-0.5,1.5-0.5,2.2c0,0.7,0.3,1.4,0.9,2c0.5,0.5,1,0.8,1.5,0.9c0.5,0.1,1,0.1,1.5,0c0.5-0.1,1-0.3,1.4-0.6    c0.4-0.3,0.8-0.6,1.2-0.9c0.6-0.6,1-1.2,1.2-1.9c0.2-0.7,0.3-1.3,0.1-1.9l0.1-0.1l1,1l1.9-1.9l-5-5    C356.1,318.3,355.7,317.9,355.1,317.6z M356.1,326.4c-0.2,0.2-0.4,0.3-0.6,0.5c-0.2,0.1-0.4,0.2-0.6,0.3c-0.2,0.1-0.4,0.1-0.6,0    c-0.2,0-0.4-0.2-0.6-0.4c-0.3-0.3-0.4-0.6-0.4-1c0-0.4,0.1-0.8,0.4-1.2c0.2-0.4,0.5-0.8,0.8-1.2c0.3-0.4,0.7-0.8,1-1.1l0.5-0.5    l0.3,0.3c0.6,0.6,1,1.3,1,2.1C357.1,325,356.8,325.7,356.1,326.4z M364.5,308.3c-0.5-0.3-1.1-0.5-1.7-0.5c-0.6-0.1-1.2,0-1.9,0.3    c-0.7,0.3-1.4,0.8-2.1,1.5c-0.6,0.6-1.1,1.3-1.5,2.2c-0.4,0.8-0.6,1.7-0.6,2.6l2.3,0.2c0-0.5,0.1-1.1,0.3-1.6    c0.2-0.6,0.5-1.1,1-1.5c0.5-0.5,1.1-0.8,1.7-1c0.6-0.1,1.2,0.1,1.7,0.6l0.2,0.2c-0.6,0.6-1.3,1.3-1.9,2c-0.6,0.7-1.1,1.5-1.4,2.2    c-0.4,0.7-0.5,1.5-0.5,2.2c0,0.7,0.3,1.4,0.9,2c0.5,0.5,1,0.8,1.5,0.9c0.5,0.1,1,0.1,1.5,0c0.5-0.1,1-0.3,1.4-0.6    c0.4-0.3,0.8-0.6,1.2-0.9c0.6-0.6,1-1.2,1.2-1.9c0.2-0.7,0.3-1.3,0.1-1.9l0.1-0.1l1,1l1.9-1.9l-5-5    C365.5,308.9,365,308.6,364.5,308.3z M365.4,317c-0.2,0.2-0.4,0.3-0.6,0.5c-0.2,0.1-0.4,0.2-0.6,0.3c-0.2,0.1-0.4,0.1-0.6,0    c-0.2,0-0.4-0.2-0.6-0.4c-0.3-0.3-0.4-0.6-0.4-1c0-0.4,0.1-0.8,0.4-1.2c0.2-0.4,0.5-0.8,0.8-1.2c0.3-0.4,0.7-0.8,1-1.1l0.5-0.5    l0.3,0.3c0.6,0.6,1,1.3,1,2.1C366.5,315.6,366.1,316.3,365.4,317z M370.4,304.8c-0.2-0.3-0.3-0.7-0.4-1.1    c-0.1-0.4-0.1-0.8,0.1-1.3c0.1-0.5,0.4-0.9,0.9-1.4c0.1-0.1,0.2-0.2,0.3-0.3c0.1-0.1,0.2-0.2,0.4-0.3l-1.9-1.9    c-0.1,0-0.2,0.1-0.3,0.2c-0.1,0.1-0.2,0.2-0.3,0.2c-0.5,0.5-0.9,1.2-1,1.9c-0.1,0.7,0,1.4,0.2,2.1l0,0l-1.4-1.4l-2,2l8.2,8.2l2-2    l-4.4-4.4C370.7,305.4,370.6,305.1,370.4,304.8z M385.4,299.7l1.9-1.9l-12.8-12.8l-2,2l5.7,5.7l-0.1,0.1c-0.2,0-0.5,0-0.8,0    c-0.3,0-0.6,0.1-1,0.2c-0.3,0.1-0.7,0.2-1.1,0.5c-0.4,0.2-0.8,0.5-1.1,0.9c-0.6,0.6-1,1.2-1.3,1.9c-0.3,0.7-0.4,1.4-0.3,2.2    c0,0.7,0.2,1.5,0.5,2.2c0.3,0.7,0.8,1.4,1.4,2c0.6,0.6,1.3,1.1,2,1.4c0.7,0.3,1.4,0.5,2.2,0.6c0.7,0,1.5-0.1,2.2-0.3    c0.7-0.3,1.4-0.7,2-1.3c0.6-0.6,1-1.2,1.2-2c0.3-0.8,0.3-1.5,0.1-2.3l0,0L385.4,299.7z M382.3,299.4c-0.1,0.4-0.4,0.9-0.8,1.2    c-0.4,0.4-0.8,0.7-1.3,0.8c-0.5,0.1-0.9,0.2-1.3,0.1c-0.4-0.1-0.9-0.2-1.3-0.4c-0.4-0.2-0.8-0.5-1.1-0.8c-0.3-0.3-0.6-0.7-0.8-1.1    c-0.2-0.4-0.4-0.8-0.4-1.3c-0.1-0.4,0-0.9,0.1-1.3c0.1-0.4,0.4-0.9,0.8-1.3c0.4-0.4,0.8-0.6,1.2-0.8c0.5-0.1,0.9-0.2,1.4-0.1    c0.5,0,0.9,0.2,1.3,0.4c0.4,0.2,0.8,0.5,1.1,0.8c0.3,0.3,0.6,0.7,0.8,1.1c0.2,0.4,0.3,0.9,0.4,1.3    C382.5,298.5,382.5,299,382.3,299.4z"/>
	</g>
</g>
<g id="_x30_488-412600">
	<g>
		<path d="M294.2,95.6c0.6-1,1-1.9,1.2-2.8c0.2-0.9,0.2-1.8-0.1-2.6c-0.2-0.8-0.7-1.6-1.4-2.3c-0.7-0.7-1.4-1.1-2.3-1.4    c-0.8-0.2-1.7-0.3-2.6-0.1c-0.9,0.2-1.8,0.6-2.8,1.2c-1,0.6-1.9,1.4-2.9,2.4c-1,1-1.8,1.9-2.4,2.9c-0.6,1-1,1.9-1.2,2.8    c-0.2,0.9-0.2,1.8,0.1,2.6c0.2,0.8,0.7,1.6,1.4,2.3c0.7,0.7,1.4,1.1,2.3,1.4c0.8,0.2,1.7,0.3,2.6,0.1c0.9-0.2,1.8-0.6,2.8-1.2    c1-0.6,1.9-1.4,2.9-2.4C292.8,97.6,293.6,96.6,294.2,95.6z M289.7,96.5c-0.4,0.4-0.9,0.9-1.5,1.4c-0.6,0.5-1.2,0.9-1.8,1.2    c-0.6,0.3-1.2,0.5-1.8,0.5c-0.6,0-1.1-0.2-1.6-0.6c-0.5-0.5-0.7-1-0.6-1.6c0-0.6,0.2-1.2,0.5-1.8c0.3-0.6,0.7-1.2,1.2-1.8    c0.5-0.6,0.9-1.1,1.3-1.5c0.4-0.4,0.9-0.9,1.5-1.3c0.6-0.5,1.2-0.9,1.8-1.2c0.6-0.3,1.2-0.5,1.9-0.5c0.6,0,1.1,0.2,1.6,0.6    c0.5,0.5,0.7,1,0.6,1.6c0,0.6-0.2,1.2-0.5,1.9c-0.3,0.6-0.7,1.2-1.2,1.8C290.6,95.6,290.1,96.1,289.7,96.5z M298.9,109.2l7.8-7.8    l-2.4-2.4l-12.9,2.6l-1.8,1.8l5.6,5.6l-2.5,2.5l2,2l2.5-2.5l1.7,1.7l1.8-1.8L298.9,109.2z M296.9,107.2l-3.5-3.5l8.8-2l0,0    L296.9,107.2z M311.1,119.3c0.1-0.5,0-0.9-0.1-1.4c-0.1-0.4-0.3-0.9-0.5-1.3l0,0c0.7,0.4,1.5,0.5,2.3,0.4c0.8-0.1,1.6-0.5,2.3-1.2    c0.5-0.5,0.9-1.1,1.1-1.7c0.2-0.6,0.3-1.2,0.2-1.8c-0.1-0.6-0.3-1.2-0.6-1.9c-0.3-0.6-0.7-1.2-1.3-1.7c-0.5-0.5-1.1-0.9-1.7-1.2    c-0.6-0.3-1.2-0.5-1.9-0.5c-0.6-0.1-1.3,0-1.9,0.2c-0.6,0.2-1.2,0.6-1.7,1.1c-0.7,0.7-1.1,1.4-1.2,2.2c-0.1,0.8,0.1,1.5,0.4,2.3    l0,0c-0.4-0.2-0.8-0.4-1.2-0.5c-0.4-0.1-0.9-0.1-1.3-0.1c-0.5,0-0.9,0.2-1.4,0.4c-0.5,0.2-0.9,0.5-1.3,0.9c-0.6,0.6-1,1.2-1.3,1.9    c-0.2,0.7-0.3,1.4-0.3,2.1c0.1,0.7,0.3,1.4,0.6,2c0.4,0.7,0.8,1.3,1.4,1.9c0.6,0.6,1.2,1,1.9,1.4c0.7,0.4,1.4,0.6,2,0.6    c0.7,0.1,1.4,0,2.1-0.3c0.7-0.2,1.3-0.7,1.9-1.3c0.4-0.4,0.7-0.8,0.9-1.2C310.9,120.2,311.1,119.8,311.1,119.3z M308.4,118.8    c-0.1,0.4-0.4,0.7-0.7,1c-0.6,0.6-1.3,0.9-2.1,0.9c-0.8,0-1.4-0.4-2-1c-0.6-0.6-0.9-1.3-1-2c0-0.7,0.3-1.4,0.9-2.1    c0.3-0.3,0.6-0.5,1-0.7c0.4-0.1,0.7-0.2,1.1-0.2c0.4,0,0.7,0.1,1.1,0.2c0.4,0.2,0.7,0.4,1,0.7c0.3,0.3,0.5,0.6,0.7,1    c0.2,0.4,0.2,0.7,0.2,1.1C308.7,118,308.6,118.4,308.4,118.8z M309.5,113.9c-0.5-0.5-0.8-1.1-0.8-1.8c0-0.7,0.3-1.2,0.8-1.7    c0.5-0.5,1.1-0.8,1.7-0.8c0.6,0,1.2,0.3,1.7,0.8c0.2,0.2,0.4,0.5,0.5,0.8c0.1,0.3,0.2,0.6,0.2,0.9c0,0.3,0,0.6-0.1,0.9    c-0.1,0.3-0.3,0.6-0.6,0.8c-0.2,0.2-0.5,0.4-0.8,0.5c-0.3,0.1-0.6,0.2-0.9,0.2c-0.3,0-0.6-0.1-0.9-0.2    C310,114.3,309.7,114.1,309.5,113.9z M320.9,127.1L320.9,127.1c0.8,0.3,1.5,0.4,2.3,0.3c0.8-0.1,1.6-0.5,2.3-1.2    c0.5-0.5,0.9-1.1,1.1-1.7c0.2-0.6,0.3-1.2,0.2-1.8c-0.1-0.6-0.3-1.2-0.6-1.9c-0.3-0.6-0.7-1.2-1.3-1.7c-0.5-0.5-1.1-0.9-1.7-1.2    c-0.6-0.3-1.2-0.5-1.9-0.5c-0.6-0.1-1.3,0-1.9,0.2c-0.6,0.2-1.2,0.6-1.7,1.1c-0.7,0.7-1.1,1.4-1.2,2.2c-0.1,0.8,0.1,1.5,0.4,2.3    l0,0c-0.4-0.2-0.8-0.4-1.2-0.5c-0.4-0.1-0.9-0.1-1.3-0.1c-0.5,0-0.9,0.2-1.4,0.4c-0.5,0.2-0.9,0.5-1.3,0.9c-0.6,0.6-1,1.2-1.3,1.9    c-0.2,0.7-0.3,1.4-0.3,2.1c0.1,0.7,0.3,1.4,0.6,2c0.4,0.7,0.8,1.3,1.4,1.9c0.6,0.6,1.2,1,1.9,1.4c0.7,0.4,1.4,0.6,2,0.6    c0.7,0.1,1.4,0,2.1-0.3c0.7-0.2,1.3-0.7,1.9-1.3c0.4-0.4,0.7-0.8,0.9-1.2c0.2-0.4,0.3-0.9,0.4-1.3c0.1-0.5,0-0.9-0.1-1.4    C321.3,127.9,321.2,127.5,320.9,127.1z M318.8,129.1c-0.1,0.4-0.4,0.7-0.7,1c-0.6,0.6-1.3,0.9-2.1,0.9c-0.8,0-1.4-0.4-2-1    c-0.6-0.6-0.9-1.3-1-2c0-0.8,0.3-1.4,0.9-2.1c0.3-0.3,0.6-0.5,1-0.7c0.4-0.1,0.7-0.2,1.1-0.2c0.4,0,0.7,0.1,1.1,0.2    c0.4,0.2,0.7,0.4,1,0.7c0.3,0.3,0.5,0.6,0.7,1c0.2,0.4,0.2,0.7,0.2,1.1C319,128.4,319,128.8,318.8,129.1z M319.9,124.2    c-0.5-0.5-0.8-1.1-0.8-1.8c0-0.7,0.3-1.2,0.8-1.7c0.5-0.5,1.1-0.8,1.7-0.8c0.6,0,1.2,0.3,1.7,0.8c0.2,0.2,0.4,0.5,0.5,0.8    c0.1,0.3,0.2,0.6,0.2,0.9c0,0.3,0,0.6-0.1,0.9c-0.1,0.3-0.3,0.6-0.6,0.8c-0.2,0.2-0.5,0.4-0.8,0.5c-0.3,0.1-0.6,0.2-0.9,0.2    c-0.3,0-0.6-0.1-0.9-0.2C320.4,124.7,320.1,124.5,319.9,124.2z M323.6,132.3l-1.7,1.7l4.1,4.1l1.7-1.7L323.6,132.3z M343.3,138    l-2.4-2.4l-12.9,2.6l-1.8,1.8l5.6,5.6l-2.5,2.5l2,2l2.5-2.5l1.7,1.7l1.8-1.8l-1.7-1.7L343.3,138z M333.5,143.7l-3.5-3.5l8.8-2l0,0    L333.5,143.7z M350.6,145.3l-6.8-0.7l-0.2,2.6l4.3,0.4l-9.6,9.6l2,2l12-12L350.6,145.3z M358,164.8c0.5,0,1-0.1,1.5-0.2    c0.5-0.1,0.9-0.3,1.4-0.5c0.4-0.2,0.8-0.5,1.2-0.9c0.6-0.6,1-1.2,1.2-1.9c0.2-0.7,0.3-1.3,0.2-2c-0.1-0.7-0.3-1.3-0.6-2    c-0.3-0.6-0.8-1.2-1.3-1.7c-0.6-0.6-1.2-1-1.8-1.3c-0.6-0.3-1.3-0.5-2-0.5c-0.7,0-1.3,0-2,0.2c-0.6,0.2-1.2,0.5-1.8,1l1.7,2.3    c0.7-0.5,1.4-0.8,2.1-0.8c0.7,0,1.4,0.2,2,0.8c0.5,0.5,0.8,1.2,0.9,1.9c0,0.7-0.2,1.3-0.8,1.9c-0.5,0.5-1,0.8-1.6,0.9    c-0.6,0.1-1.3,0.2-2,0.2l-9.2-0.1l-1.9,1.9l8,8l1.9-1.9l-5.4-5.4l6.8,0.2C357,164.9,357.5,164.9,358,164.8z M369.5,175    c0-0.7-0.1-1.4-0.4-2c-0.3-0.7-0.7-1.3-1.2-1.8c-0.2-0.2-0.4-0.4-0.7-0.6c-0.3-0.2-0.5-0.4-0.8-0.5v0l7.5-1.4l-2.5-2.5l-7.7,1.6    c-0.5,0.1-1,0.2-1.4,0.4c-0.4,0.1-0.8,0.3-1.2,0.5c-0.4,0.2-0.8,0.4-1.1,0.6c-0.4,0.2-0.7,0.5-1,0.9c-0.6,0.6-1,1.2-1.3,2    c-0.3,0.7-0.4,1.5-0.4,2.2c0,0.8,0.2,1.5,0.5,2.3c0.3,0.7,0.8,1.4,1.4,2.1c0.6,0.6,1.3,1.1,2,1.4c0.7,0.3,1.5,0.5,2.2,0.5    c0.8,0,1.5-0.1,2.3-0.4c0.7-0.3,1.4-0.8,2.1-1.4c0.5-0.5,1-1.2,1.2-1.8C369.4,176.3,369.5,175.7,369.5,175z M366.5,175.7    c-0.2,0.4-0.4,0.8-0.8,1.1c-0.7,0.7-1.5,1.1-2.4,1.1c-0.9,0-1.6-0.3-2.3-1c-0.4-0.4-0.6-0.7-0.8-1.1c-0.2-0.4-0.2-0.8-0.2-1.2    c0-0.4,0.1-0.8,0.3-1.2c0.2-0.4,0.4-0.7,0.7-1.1c0.4-0.4,0.7-0.6,1.1-0.8c0.4-0.2,0.8-0.3,1.2-0.3c0.4,0,0.8,0.1,1.2,0.3    c0.4,0.2,0.8,0.4,1.1,0.8c0.3,0.3,0.6,0.7,0.7,1.1c0.2,0.4,0.2,0.8,0.2,1.2S366.6,175.3,366.5,175.7z M382.6,184.1    c0.6-1,1-1.9,1.2-2.8c0.2-0.9,0.2-1.8-0.1-2.6c-0.2-0.8-0.7-1.6-1.4-2.3c-0.7-0.7-1.4-1.1-2.3-1.4c-0.8-0.2-1.7-0.3-2.6-0.1    c-0.9,0.2-1.8,0.6-2.8,1.2c-1,0.6-1.9,1.4-2.9,2.4c-1,1-1.8,1.9-2.4,2.9c-0.6,1-1,1.9-1.2,2.8c-0.2,0.9-0.2,1.8,0.1,2.6    c0.2,0.8,0.7,1.6,1.4,2.3c0.7,0.7,1.4,1.1,2.3,1.4c0.8,0.2,1.7,0.3,2.6,0.1c0.9-0.2,1.8-0.6,2.8-1.2c1-0.6,1.9-1.4,2.9-2.4    C381.2,186,382,185,382.6,184.1z M378.1,184.9c-0.4,0.4-0.9,0.9-1.5,1.4c-0.6,0.5-1.2,0.9-1.8,1.2c-0.6,0.3-1.2,0.5-1.8,0.5    c-0.6,0-1.1-0.2-1.6-0.6c-0.5-0.5-0.7-1-0.6-1.6c0-0.6,0.2-1.2,0.5-1.8c0.3-0.6,0.7-1.2,1.2-1.8c0.5-0.6,0.9-1.1,1.3-1.5    c0.4-0.4,0.9-0.9,1.5-1.3c0.6-0.5,1.2-0.9,1.8-1.2c0.6-0.3,1.2-0.5,1.9-0.5c0.6,0,1.1,0.2,1.6,0.6c0.5,0.5,0.7,1,0.6,1.6    c0,0.6-0.2,1.2-0.5,1.9c-0.3,0.6-0.7,1.2-1.2,1.8C379,184,378.6,184.5,378.1,184.9z M394.1,189c-0.2-0.8-0.7-1.6-1.4-2.3    c-0.7-0.7-1.4-1.1-2.3-1.4c-0.8-0.2-1.7-0.3-2.6-0.1c-0.9,0.2-1.8,0.6-2.8,1.2c-1,0.6-1.9,1.4-2.9,2.4c-1,1-1.8,1.9-2.4,2.9    c-0.6,1-1,1.9-1.2,2.8c-0.2,0.9-0.2,1.8,0.1,2.6c0.2,0.8,0.7,1.6,1.4,2.3c0.7,0.7,1.4,1.1,2.3,1.4c0.8,0.2,1.7,0.3,2.6,0.1    c0.9-0.2,1.8-0.6,2.8-1.2c1-0.6,1.9-1.4,2.9-2.4c1-1,1.8-1.9,2.4-2.9c0.6-1,1-1.9,1.2-2.8C394.3,190.7,394.3,189.9,394.1,189z     M391.1,191.9c-0.3,0.6-0.7,1.2-1.2,1.8c-0.5,0.6-0.9,1.1-1.4,1.5c-0.4,0.4-0.9,0.9-1.5,1.4c-0.6,0.5-1.2,0.9-1.8,1.2    c-0.6,0.3-1.2,0.5-1.8,0.5c-0.6,0-1.1-0.2-1.6-0.6c-0.5-0.5-0.7-1-0.6-1.6c0-0.6,0.2-1.2,0.5-1.8c0.3-0.6,0.7-1.2,1.2-1.8    c0.5-0.6,0.9-1.1,1.3-1.5c0.4-0.4,0.9-0.9,1.5-1.3c0.6-0.5,1.2-0.9,1.8-1.2c0.6-0.3,1.2-0.5,1.9-0.5c0.6,0,1.1,0.2,1.6,0.6    c0.5,0.5,0.7,1,0.6,1.6C391.6,190.7,391.4,191.3,391.1,191.9z"/>
	</g>
</g>
</svg>